<svg width="406" height="138" fill="none" xmlns="http://www.w3.org/2000/svg"><path d="M0 6a6 6 0 0 1 6-6h394a6 6 0 0 1 6 6v126a6 6 0 0 1-6 6H6a6 6 0 0 1-6-6V6Z" fill="#ACB14F" fill-opacity=".2"/><path d="M46 58.5a1.5 1.5 0 0 1 1.5 1.5v15.189a6 6 0 1 1-3 0V60a1.5 1.5 0 0 1 1.5-1.5ZM46 45a9 9 0 0 0-9 9v19.062a12 12 0 1 0 18 0V54a9 9 0 0 0-9-9Zm0 3a6 6 0 0 1 6 6v20.265l.429.435a9 9 0 1 1-12.858 0l.429-.435V54a6 6 0 0 1 6-6Z" fill="#fff"/><g clip-path="url(#a)"><path d="M86.57 65.216c-1.092 0-2.07-.216-2.934-.648-.852-.444-1.524-1.134-2.016-2.07-.48-.948-.72-2.184-.72-3.708v-.36c0-1.104.144-2.046.432-2.826.288-.792.69-1.44 1.206-1.944a5.005 5.005 0 0 1 1.818-1.116 6.641 6.641 0 0 1 2.214-.36c.708 0 1.368.09 1.98.27a5.011 5.011 0 0 1 1.656.774c.48.348.864.798 1.152 1.35.3.552.474 1.2.522 1.944h-2.808c-.132-.708-.42-1.23-.864-1.566-.444-.336-.99-.504-1.638-.504-.504 0-.972.126-1.404.378-.432.24-.786.648-1.062 1.224-.264.576-.396 1.368-.396 2.376v.36c0 .792.084 1.458.252 1.998.168.528.39.954.666 1.278.276.312.582.54.918.684.336.132.678.198 1.026.198.684 0 1.248-.174 1.692-.522.444-.36.714-.876.81-1.548h2.808c-.06.78-.234 1.452-.522 2.016a3.9 3.9 0 0 1-1.134 1.35 4.754 4.754 0 0 1-1.638.738 8.294 8.294 0 0 1-2.016.234Zm8.716 3.6c-.18 0-.36-.018-.54-.054v-2.016c.18.036.36.054.54.054.24 0 .438-.06.594-.18.168-.12.318-.312.45-.576.144-.264.3-.612.468-1.044l-4.032-9.54h2.664l2.592 6.588 2.376-6.588h2.448L99.174 65c-.348.9-.684 1.626-1.008 2.178-.324.564-.708.978-1.152 1.242-.432.264-1.008.396-1.728.396ZM104.125 65v-9.54h4.752c.828 0 1.5.108 2.016.324.516.216.888.516 1.116.9.24.384.36.834.36 1.35 0 .432-.132.846-.396 1.242a1.923 1.923 0 0 1-1.116.774c.588.144 1.044.42 1.368.828.336.396.504.864.504 1.404 0 .828-.288 1.488-.864 1.98-.576.492-1.452.738-2.628.738h-5.112Zm2.358-1.908h2.304c.54 0 .936-.078 1.188-.234.264-.168.396-.432.396-.792 0-.36-.126-.618-.378-.774-.24-.168-.642-.252-1.206-.252h-2.304v2.052Zm0-3.816h2.07c.552 0 .93-.078 1.134-.234.216-.156.324-.396.324-.72 0-.312-.108-.546-.324-.702-.216-.168-.594-.252-1.134-.252h-2.07v1.908Zm12.298 5.94a5.504 5.504 0 0 1-2.394-.522c-.72-.36-1.296-.906-1.728-1.638-.432-.732-.648-1.644-.648-2.736v-.36c0-1.032.216-1.896.648-2.592a4.068 4.068 0 0 1 1.728-1.584 5.35 5.35 0 0 1 2.394-.54c.876 0 1.674.18 2.394.54.72.348 1.296.876 1.728 1.584.432.696.648 1.56.648 2.592v.36c0 1.068-.216 1.968-.648 2.7a4.244 4.244 0 0 1-1.728 1.656c-.72.36-1.518.54-2.394.54Zm0-2.016a2.34 2.34 0 0 0 1.206-.306c.36-.216.642-.54.846-.972.204-.432.306-.966.306-1.602v-.36c0-.588-.102-1.08-.306-1.476a2.12 2.12 0 0 0-.846-.9 2.24 2.24 0 0 0-1.206-.324c-.456 0-.864.108-1.224.324a2.155 2.155 0 0 0-.828.9c-.204.396-.306.888-.306 1.476v.36c0 .648.102 1.188.306 1.62.204.42.48.738.828.954.36.204.768.306 1.224.306Zm6.491 5.4V55.46h2.196v1.404c.24-.432.618-.81 1.134-1.134.516-.324 1.17-.486 1.962-.486 1.272 0 2.262.396 2.97 1.188.72.78 1.08 1.956 1.08 3.528v.36c0 1.092-.168 2.004-.504 2.736-.324.72-.786 1.26-1.386 1.62-.6.36-1.32.54-2.16.54-.648 0-1.224-.138-1.728-.414a3.71 3.71 0 0 1-1.206-1.116V68.6h-2.358Zm4.734-5.4c.624 0 1.146-.234 1.566-.702.42-.48.63-1.206.63-2.178v-.36c0-.9-.204-1.572-.612-2.016-.396-.456-.924-.684-1.584-.684-.444 0-.852.09-1.224.27-.36.168-.642.426-.846.774-.204.336-.306.768-.306 1.296v1.08c0 .564.096 1.038.288 1.422.204.372.486.648.846.828.36.18.774.27 1.242.27Zm6.34 1.8v-9.54h2.358v6.12l4.248-6.12h2.178V65h-2.358v-6.12L138.524 65h-2.178Zm10.986 0v-9.54h2.358v6.12l4.248-6.12h2.178V65h-2.358v-6.12L149.51 65h-2.178Zm4.41-10.53c-1.068 0-1.848-.228-2.34-.684-.48-.456-.72-1.128-.72-2.016h2.106c0 .468.078.798.234.99.156.18.39.27.702.27.336 0 .588-.09.756-.27.168-.192.252-.522.252-.99h2.07c0 .888-.246 1.56-.738 2.016-.492.456-1.266.684-2.322.684ZM165.123 65v-7.56h-3.042v-1.98h8.442v1.98h-3.024V65h-2.376Zm10.98.216a5.504 5.504 0 0 1-2.394-.522c-.72-.36-1.296-.9-1.728-1.62-.432-.732-.648-1.65-.648-2.754v-.36c0-1.056.204-1.932.612-2.628a4.04 4.04 0 0 1 1.674-1.566 5.079 5.079 0 0 1 2.304-.522c1.5 0 2.64.396 3.42 1.188.78.792 1.17 1.938 1.17 3.438v1.008h-6.75c.024.564.144 1.026.36 1.386.228.348.516.606.864.774.348.156.72.234 1.116.234.612 0 1.074-.09 1.386-.27.312-.18.534-.444.666-.792h2.178c-.192.996-.666 1.746-1.422 2.25-.756.504-1.692.756-2.808.756Zm-.09-8.028c-.372 0-.732.06-1.08.18a1.58 1.58 0 0 0-.828.648c-.204.3-.318.702-.342 1.206h4.446c-.012-.54-.12-.954-.324-1.242a1.44 1.44 0 0 0-.774-.612c-.324-.12-.69-.18-1.098-.18Zm6.23 7.812v-9.54h2.79l2.646 5.148 2.646-5.148h2.682V65h-2.25v-6.21l-2.322 4.32h-1.62l-2.322-4.32V65h-2.25Zm12.955 0v-9.54h8.604V65h-2.358v-7.56h-3.888V65h-2.358Zm15.095.216a5.504 5.504 0 0 1-2.394-.522c-.72-.36-1.296-.9-1.728-1.62-.432-.732-.648-1.65-.648-2.754v-.36c0-1.056.204-1.932.612-2.628a4.04 4.04 0 0 1 1.674-1.566 5.079 5.079 0 0 1 2.304-.522c1.5 0 2.64.396 3.42 1.188.78.792 1.17 1.938 1.17 3.438v1.008h-6.75c.024.564.144 1.026.36 1.386.228.348.516.606.864.774.348.156.72.234 1.116.234.612 0 1.074-.09 1.386-.27.312-.18.534-.444.666-.792h2.178c-.192.996-.666 1.746-1.422 2.25-.756.504-1.692.756-2.808.756Zm-.09-8.028c-.372 0-.732.06-1.08.18a1.58 1.58 0 0 0-.828.648c-.204.3-.318.702-.342 1.206h4.446c-.012-.54-.12-.954-.324-1.242a1.44 1.44 0 0 0-.774-.612c-.324-.12-.69-.18-1.098-.18Zm6.229 11.412V55.46h2.196v1.404c.24-.432.618-.81 1.134-1.134.516-.324 1.17-.486 1.962-.486 1.272 0 2.262.396 2.97 1.188.72.78 1.08 1.956 1.08 3.528v.36c0 1.092-.168 2.004-.504 2.736-.324.72-.786 1.26-1.386 1.62-.6.36-1.32.54-2.16.54-.648 0-1.224-.138-1.728-.414a3.71 3.71 0 0 1-1.206-1.116V68.6h-2.358Zm4.734-5.4c.624 0 1.146-.234 1.566-.702.42-.48.63-1.206.63-2.178v-.36c0-.9-.204-1.572-.612-2.016-.396-.456-.924-.684-1.584-.684-.444 0-.852.09-1.224.27-.36.168-.642.426-.846.774-.204.336-.306.768-.306 1.296v1.08c0 .564.096 1.038.288 1.422.204.372.486.648.846.828.36.18.774.27 1.242.27Zm9.184 2.016c-.684 0-1.266-.126-1.746-.378a2.72 2.72 0 0 1-1.098-1.08 3.146 3.146 0 0 1-.378-1.548c0-.96.282-1.68.846-2.16.576-.48 1.434-.72 2.574-.72h2.844v-.45c0-.624-.144-1.062-.432-1.314-.276-.252-.72-.378-1.332-.378-.54 0-.93.096-1.17.288a.992.992 0 0 0-.414.684h-2.376c.036-.552.21-1.044.522-1.476.324-.444.78-.792 1.368-1.044.6-.264 1.32-.396 2.16-.396.816 0 1.524.12 2.124.36.612.24 1.086.63 1.422 1.17.336.528.504 1.242.504 2.142v3.654c0 .504.006.948.018 1.332.024.372.06.738.108 1.098h-2.214a7.39 7.39 0 0 1-.09-.594v-.63c-.252.384-.648.72-1.188 1.008-.54.288-1.224.432-2.052.432Zm.738-1.836c.384 0 .75-.066 1.098-.198.36-.144.648-.36.864-.648.228-.3.342-.678.342-1.134v-.45h-2.394c-.456 0-.816.108-1.08.324-.252.204-.378.486-.378.846 0 .384.132.69.396.918.264.228.648.342 1.152.342Zm8.918 1.62v-7.56h-3.042v-1.98h8.442v1.98h-3.024V65h-2.376Zm8.807 3.816c-.18 0-.36-.018-.54-.054v-2.016c.18.036.36.054.54.054.24 0 .438-.06.594-.18.168-.12.318-.312.45-.576.144-.264.3-.612.468-1.044l-4.032-9.54h2.664l2.592 6.588 2.376-6.588h2.448L252.701 65c-.348.9-.684 1.626-1.008 2.178-.324.564-.708.978-1.152 1.242-.432.264-1.008.396-1.728.396Zm8.84-.216V55.46h2.196v1.404c.24-.432.618-.81 1.134-1.134.516-.324 1.17-.486 1.962-.486 1.272 0 2.262.396 2.97 1.188.72.78 1.08 1.956 1.08 3.528v.36c0 1.092-.168 2.004-.504 2.736-.324.72-.786 1.26-1.386 1.62-.6.36-1.32.54-2.16.54-.648 0-1.224-.138-1.728-.414a3.71 3.71 0 0 1-1.206-1.116V68.6h-2.358Zm4.734-5.4c.624 0 1.146-.234 1.566-.702.42-.48.63-1.206.63-2.178v-.36c0-.9-.204-1.572-.612-2.016-.396-.456-.924-.684-1.584-.684-.444 0-.852.09-1.224.27-.36.168-.642.426-.846.774-.204.336-.306.768-.306 1.296v1.08c0 .564.096 1.038.288 1.422.204.372.486.648.846.828.36.18.774.27 1.242.27Zm6.34 1.8v-9.54h2.358v3.69h4.068v-3.69h2.358V65h-2.358v-3.87h-4.068V65h-2.358Zm10.986 0v-9.54h2.358v6.12l4.248-6.12h2.178V65h-2.358v-6.12L281.891 65h-2.178Zm10.987 0v-9.54h2.358v6.12l4.248-6.12h2.178V65h-2.358v-6.12L292.878 65H290.7Zm4.41-10.53c-1.068 0-1.848-.228-2.34-.684-.48-.456-.72-1.128-.72-2.016h2.106c0 .468.078.798.234.99.156.18.39.27.702.27.336 0 .588-.09.756-.27.168-.192.252-.522.252-.99h2.07c0 .888-.246 1.56-.738 2.016-.492.456-1.266.684-2.322.684ZM81.098 87v-9.54h2.358v3.744h.882l2.952-3.744h2.61l-3.6 4.518L90.08 87h-2.844l-2.898-3.924h-.882V87h-2.358Zm14.304.216a5.504 5.504 0 0 1-2.394-.522c-.72-.36-1.296-.906-1.728-1.638-.432-.732-.648-1.644-.648-2.736v-.36c0-1.032.216-1.896.648-2.592a4.068 4.068 0 0 1 1.728-1.584 5.35 5.35 0 0 1 2.394-.54c.876 0 1.674.18 2.394.54.72.348 1.296.876 1.728 1.584.432.696.648 1.56.648 2.592v.36c0 1.068-.216 1.968-.648 2.7a4.244 4.244 0 0 1-1.728 1.656c-.72.36-1.518.54-2.394.54Zm0-2.016a2.34 2.34 0 0 0 1.206-.306c.36-.216.642-.54.846-.972.204-.432.306-.966.306-1.602v-.36c0-.588-.102-1.08-.306-1.476a2.12 2.12 0 0 0-.846-.9 2.24 2.24 0 0 0-1.206-.324c-.456 0-.864.108-1.224.324a2.155 2.155 0 0 0-.828.9c-.204.396-.306.888-.306 1.476v.36c0 .648.102 1.188.306 1.62.204.42.48.738.828.954.36.204.768.306 1.224.306Zm6.491 1.8v-9.54h2.358v3.69h4.068v-3.69h2.358V87h-2.358v-3.87h-4.068V87h-2.358Zm13.29 0v-7.56h-3.042v-1.98h8.442v1.98h-3.024V87h-2.376Zm6.854 3.6V77.46h2.196v1.404c.24-.432.618-.81 1.134-1.134.516-.324 1.17-.486 1.962-.486 1.272 0 2.262.396 2.97 1.188.72.78 1.08 1.956 1.08 3.528v.36c0 1.092-.168 2.004-.504 2.736-.324.72-.786 1.26-1.386 1.62-.6.36-1.32.54-2.16.54-.648 0-1.224-.138-1.728-.414a3.71 3.71 0 0 1-1.206-1.116V90.6h-2.358Zm4.734-5.4c.624 0 1.146-.234 1.566-.702.42-.48.63-1.206.63-2.178v-.36c0-.9-.204-1.572-.612-2.016-.396-.456-.924-.684-1.584-.684-.444 0-.852.09-1.224.27-.36.168-.642.426-.846.774-.204.336-.306.768-.306 1.296v1.08c0 .564.096 1.038.288 1.422.204.372.486.648.846.828.36.18.774.27 1.242.27Zm10.643 2.016a5.504 5.504 0 0 1-2.394-.522c-.72-.36-1.296-.906-1.728-1.638-.432-.732-.648-1.644-.648-2.736v-.36c0-1.032.216-1.896.648-2.592a4.068 4.068 0 0 1 1.728-1.584 5.35 5.35 0 0 1 2.394-.54c.876 0 1.674.18 2.394.54.72.348 1.296.876 1.728 1.584.432.696.648 1.56.648 2.592v.36c0 1.068-.216 1.968-.648 2.7a4.244 4.244 0 0 1-1.728 1.656c-.72.36-1.518.54-2.394.54Zm0-2.016a2.34 2.34 0 0 0 1.206-.306c.36-.216.642-.54.846-.972.204-.432.306-.966.306-1.602v-.36c0-.588-.102-1.08-.306-1.476a2.12 2.12 0 0 0-.846-.9 2.24 2.24 0 0 0-1.206-.324c-.456 0-.864.108-1.224.324a2.155 2.155 0 0 0-.828.9c-.204.396-.306.888-.306 1.476v.36c0 .648.102 1.188.306 1.62.204.42.48.738.828.954.36.204.768.306 1.224.306Zm6.387 2.016c-.096 0-.216-.006-.36-.018-.144 0-.264-.012-.36-.036V85.02c.036.012.126.018.27.018a.906.906 0 0 0 .756-.378c.204-.264.354-.714.45-1.35.096-.636.144-1.506.144-2.61v-3.24h7.56V87h-2.376v-7.56h-2.988v1.62c0 1.236-.066 2.256-.198 3.06-.12.804-.312 1.434-.576 1.89-.252.444-.57.756-.954.936-.384.18-.84.27-1.368.27ZM154.416 87v-9.54h2.376v3.204h2.034c1.236 0 2.16.264 2.772.792.612.528.918 1.32.918 2.376 0 .624-.126 1.176-.378 1.656-.252.468-.648.84-1.188 1.116-.54.264-1.248.396-2.124.396h-4.41Zm2.376-1.908h1.782c.564 0 .966-.102 1.206-.306.252-.216.378-.534.378-.954 0-.42-.126-.738-.378-.954-.252-.216-.654-.324-1.206-.324h-1.782v2.538ZM168.567 87v-9.54h2.358v3.744h.882l2.952-3.744h2.61l-3.6 4.518 3.78 5.022h-2.844l-2.898-3.924h-.882V87h-2.358Zm14.304.216a5.504 5.504 0 0 1-2.394-.522c-.72-.36-1.296-.906-1.728-1.638-.432-.732-.648-1.644-.648-2.736v-.36c0-1.032.216-1.896.648-2.592a4.068 4.068 0 0 1 1.728-1.584 5.35 5.35 0 0 1 2.394-.54c.876 0 1.674.18 2.394.54.72.348 1.296.876 1.728 1.584.432.696.648 1.56.648 2.592v.36c0 1.068-.216 1.968-.648 2.7a4.244 4.244 0 0 1-1.728 1.656c-.72.36-1.518.54-2.394.54Zm0-2.016a2.34 2.34 0 0 0 1.206-.306c.36-.216.642-.54.846-.972.204-.432.306-.966.306-1.602v-.36c0-.588-.102-1.08-.306-1.476a2.12 2.12 0 0 0-.846-.9 2.24 2.24 0 0 0-1.206-.324c-.456 0-.864.108-1.224.324a2.155 2.155 0 0 0-.828.9c-.204.396-.306.888-.306 1.476v.36c0 .648.102 1.188.306 1.62.204.42.48.738.828.954.36.204.768.306 1.224.306Zm5.311 1.8 3.384-4.968-3.204-4.572h2.484l2.556 3.744h.702V77.46h2.376v3.744h.72l2.574-3.744h2.448l-3.186 4.518L202.402 87h-2.664l-2.538-3.924h-.72V87h-2.376v-3.924h-.72L190.774 87h-2.592Zm15.576 0v-9.54h2.358v3.69h4.068v-3.69h2.358V87h-2.358v-3.87h-4.068V87h-2.358Zm15.288.216a5.504 5.504 0 0 1-2.394-.522c-.72-.36-1.296-.906-1.728-1.638-.432-.732-.648-1.644-.648-2.736v-.36c0-1.032.216-1.896.648-2.592a4.068 4.068 0 0 1 1.728-1.584 5.35 5.35 0 0 1 2.394-.54c.876 0 1.674.18 2.394.54.72.348 1.296.876 1.728 1.584.432.696.648 1.56.648 2.592v.36c0 1.068-.216 1.968-.648 2.7a4.244 4.244 0 0 1-1.728 1.656c-.72.36-1.518.54-2.394.54Zm0-2.016a2.34 2.34 0 0 0 1.206-.306c.36-.216.642-.54.846-.972.204-.432.306-.966.306-1.602v-.36c0-.588-.102-1.08-.306-1.476a2.12 2.12 0 0 0-.846-.9 2.24 2.24 0 0 0-1.206-.324c-.456 0-.864.108-1.224.324a2.155 2.155 0 0 0-.828.9c-.204.396-.306.888-.306 1.476v.36c0 .648.102 1.188.306 1.62.204.42.48.738.828.954.36.204.768.306 1.224.306Zm6.671 1.8v-9.54h2.358V87h-2.358Zm-.738-10.548c-.384 0-.702-.126-.954-.378a1.293 1.293 0 0 1-.378-.954c0-.384.126-.702.378-.954s.57-.378.954-.378.702.126.954.378.378.57.378.954-.126.702-.378.954-.57.378-.954.378Zm3.816 0c-.384 0-.702-.126-.954-.378a1.293 1.293 0 0 1-.378-.954c0-.384.126-.702.378-.954s.57-.378.954-.378.702.126.954.378.378.57.378.954-.126.702-.378.954-.57.378-.954.378ZM234.924 87v-9.54h8.604V87h-2.358v-7.56h-3.888V87h-2.358Zm13.637.216c-.684 0-1.266-.126-1.746-.378a2.72 2.72 0 0 1-1.098-1.08 3.146 3.146 0 0 1-.378-1.548c0-.96.282-1.68.846-2.16.576-.48 1.434-.72 2.574-.72h2.844v-.45c0-.624-.144-1.062-.432-1.314-.276-.252-.72-.378-1.332-.378-.54 0-.93.096-1.17.288a.992.992 0 0 0-.414.684h-2.376c.036-.552.21-1.044.522-1.476.324-.444.78-.792 1.368-1.044.6-.264 1.32-.396 2.16-.396.816 0 1.524.12 2.124.36.612.24 1.086.63 1.422 1.17.336.528.504 1.242.504 2.142v3.654c0 .504.006.948.018 1.332.024.372.06.738.108 1.098h-2.214a7.39 7.39 0 0 1-.09-.594v-.63c-.252.384-.648.72-1.188 1.008-.54.288-1.224.432-2.052.432Zm.738-1.836c.384 0 .75-.066 1.098-.198.36-.144.648-.36.864-.648.228-.3.342-.678.342-1.134v-.45h-2.394c-.456 0-.816.108-1.08.324-.252.204-.378.486-.378.846 0 .384.132.69.396.918.264.228.648.342 1.152.342Zm6.772 5.22V77.46h2.196v1.404c.24-.432.618-.81 1.134-1.134.516-.324 1.17-.486 1.962-.486 1.272 0 2.262.396 2.97 1.188.72.78 1.08 1.956 1.08 3.528v.36c0 1.092-.168 2.004-.504 2.736-.324.72-.786 1.26-1.386 1.62-.6.36-1.32.54-2.16.54-.648 0-1.224-.138-1.728-.414a3.71 3.71 0 0 1-1.206-1.116V90.6h-2.358Zm4.734-5.4c.624 0 1.146-.234 1.566-.702.42-.48.63-1.206.63-2.178v-.36c0-.9-.204-1.572-.612-2.016-.396-.456-.924-.684-1.584-.684-.444 0-.852.09-1.224.27-.36.168-.642.426-.846.774-.204.336-.306.768-.306 1.296v1.08c0 .564.096 1.038.288 1.422.204.372.486.648.846.828.36.18.774.27 1.242.27Zm8.468 1.8v-7.56h-3.042v-1.98h8.442v1.98h-3.024V87h-2.376Zm7.034 0v-9.54h2.358V87h-2.358Zm1.17-10.458c-.42 0-.768-.132-1.044-.396-.264-.264-.396-.606-.396-1.026 0-.42.132-.762.396-1.026a1.427 1.427 0 0 1 1.026-.396c.432 0 .78.132 1.044.396.276.264.414.606.414 1.026 0 .42-.138.762-.414 1.026-.264.264-.606.396-1.026.396ZM281.352 87v-9.54h2.358V87h-2.358Zm-.738-10.548c-.384 0-.702-.126-.954-.378a1.293 1.293 0 0 1-.378-.954c0-.384.126-.702.378-.954s.57-.378.954-.378.702.126.954.378.378.57.378.954-.126.702-.378.954-.57.378-.954.378Zm3.816 0c-.384 0-.702-.126-.954-.378a1.293 1.293 0 0 1-.378-.954c0-.384.126-.702.378-.954s.57-.378.954-.378.702.126.954.378.378.57.378.954-.126.702-.378.954-.57.378-.954.378ZM290.559 87v-9.54h8.604V87h-2.358v-7.56h-3.888V87h-2.358Zm10.793 3.6V77.46h2.196v1.404c.24-.432.618-.81 1.134-1.134.516-.324 1.17-.486 1.962-.486 1.272 0 2.262.396 2.97 1.188.72.78 1.08 1.956 1.08 3.528v.36c0 1.092-.168 2.004-.504 2.736-.324.72-.786 1.26-1.386 1.62-.6.36-1.32.54-2.16.54-.648 0-1.224-.138-1.728-.414a3.71 3.71 0 0 1-1.206-1.116V90.6h-2.358Zm4.734-5.4c.624 0 1.146-.234 1.566-.702.42-.48.63-1.206.63-2.178v-.36c0-.9-.204-1.572-.612-2.016-.396-.456-.924-.684-1.584-.684-.444 0-.852.09-1.224.27-.36.168-.642.426-.846.774-.204.336-.306.768-.306 1.296v1.08c0 .564.096 1.038.288 1.422.204.372.486.648.846.828.36.18.774.27 1.242.27Zm10.642 2.016a5.504 5.504 0 0 1-2.394-.522c-.72-.36-1.296-.9-1.728-1.62-.432-.732-.648-1.65-.648-2.754v-.36c0-1.056.204-1.932.612-2.628a4.04 4.04 0 0 1 1.674-1.566 5.079 5.079 0 0 1 2.304-.522c1.5 0 2.64.396 3.42 1.188.78.792 1.17 1.938 1.17 3.438v1.008h-6.75c.024.564.144 1.026.36 1.386.228.348.516.606.864.774.348.156.72.234 1.116.234.612 0 1.074-.09 1.386-.27.312-.18.534-.444.666-.792h2.178c-.192.996-.666 1.746-1.422 2.25-.756.504-1.692.756-2.808.756Zm-.09-8.028c-.372 0-.732.06-1.08.18a1.58 1.58 0 0 0-.828.648c-.204.3-.318.702-.342 1.206h4.446c-.012-.54-.12-.954-.324-1.242a1.44 1.44 0 0 0-.774-.612c-.324-.12-.69-.18-1.098-.18Zm6.23 7.812v-9.54h8.604V87h-2.358v-7.56h-3.888V87h-2.358Zm13.637.216c-.684 0-1.266-.126-1.746-.378a2.72 2.72 0 0 1-1.098-1.08 3.146 3.146 0 0 1-.378-1.548c0-.96.282-1.68.846-2.16.576-.48 1.434-.72 2.574-.72h2.844v-.45c0-.624-.144-1.062-.432-1.314-.276-.252-.72-.378-1.332-.378-.54 0-.93.096-1.17.288a.992.992 0 0 0-.414.684h-2.376c.036-.552.21-1.044.522-1.476.324-.444.78-.792 1.368-1.044.6-.264 1.32-.396 2.16-.396.816 0 1.524.12 2.124.36.612.24 1.086.63 1.422 1.17.336.528.504 1.242.504 2.142v3.654c0 .504.006.948.018 1.332.024.372.06.738.108 1.098h-2.214a7.39 7.39 0 0 1-.09-.594v-.63c-.252.384-.648.72-1.188 1.008-.54.288-1.224.432-2.052.432Zm.738-1.836c.384 0 .75-.066 1.098-.198.36-.144.648-.36.864-.648.228-.3.342-.678.342-1.134v-.45h-2.394c-.456 0-.816.108-1.08.324-.252.204-.378.486-.378.846 0 .384.132.69.396.918.264.228.648.342 1.152.342Zm6.771 5.22V77.46h2.196v1.404c.24-.432.618-.81 1.134-1.134.516-.324 1.17-.486 1.962-.486 1.272 0 2.262.396 2.97 1.188.72.78 1.08 1.956 1.08 3.528v.36c0 1.092-.168 2.004-.504 2.736-.324.72-.786 1.26-1.386 1.62-.6.36-1.32.54-2.16.54-.648 0-1.224-.138-1.728-.414a3.71 3.71 0 0 1-1.206-1.116V90.6h-2.358Zm4.734-5.4c.624 0 1.146-.234 1.566-.702.42-.48.63-1.206.63-2.178v-.36c0-.9-.204-1.572-.612-2.016-.396-.456-.924-.684-1.584-.684-.444 0-.852.09-1.224.27-.36.168-.642.426-.846.774-.204.336-.306.768-.306 1.296v1.08c0 .564.096 1.038.288 1.422.204.372.486.648.846.828.36.18.774.27 1.242.27Zm9.184 2.016c-.684 0-1.266-.126-1.746-.378a2.72 2.72 0 0 1-1.098-1.08 3.146 3.146 0 0 1-.378-1.548c0-.96.282-1.68.846-2.16.576-.48 1.434-.72 2.574-.72h2.844v-.45c0-.624-.144-1.062-.432-1.314-.276-.252-.72-.378-1.332-.378-.54 0-.93.096-1.17.288a.992.992 0 0 0-.414.684h-2.376c.036-.552.21-1.044.522-1.476.324-.444.78-.792 1.368-1.044.6-.264 1.32-.396 2.16-.396.816 0 1.524.12 2.124.36.612.24 1.086.63 1.422 1.17.336.528.504 1.242.504 2.142v3.654c0 .504.006.948.018 1.332.024.372.06.738.108 1.098h-2.214a7.39 7.39 0 0 1-.09-.594v-.63c-.252.384-.648.72-1.188 1.008-.54.288-1.224.432-2.052.432Zm.738-1.836c.384 0 .75-.066 1.098-.198.36-.144.648-.36.864-.648.228-.3.342-.678.342-1.134v-.45h-2.394c-.456 0-.816.108-1.08.324-.252.204-.378.486-.378.846 0 .384.132.69.396.918.264.228.648.342 1.152.342Zm8.918 1.62v-7.56h-3.042v-1.98h8.442v1.98h-3.024V87h-2.376Zm7.034 0v-9.54h2.358V87h-2.358Zm1.17-10.458c-.42 0-.768-.132-1.044-.396-.264-.264-.396-.606-.396-1.026 0-.42.132-.762.396-1.026a1.427 1.427 0 0 1 1.026-.396c.432 0 .78.132 1.044.396.276.264.414.606.414 1.026 0 .42-.138.762-.414 1.026-.264.264-.606.396-1.026.396ZM379.328 87v-9.54h4.752c.828 0 1.5.108 2.016.324.516.216.888.516 1.116.9.24.384.36.834.36 1.35 0 .432-.132.846-.396 1.242a1.923 1.923 0 0 1-1.116.774c.588.144 1.044.42 1.368.828.336.396.504.864.504 1.404 0 .828-.288 1.488-.864 1.98-.576.492-1.452.738-2.628.738h-5.112Zm2.358-1.908h2.304c.54 0 .936-.078 1.188-.234.264-.168.396-.432.396-.792 0-.36-.126-.618-.378-.774-.24-.168-.642-.252-1.206-.252h-2.304v2.052Zm0-3.816h2.07c.552 0 .93-.078 1.134-.234.216-.156.324-.396.324-.72 0-.312-.108-.546-.324-.702-.216-.168-.594-.252-1.134-.252h-2.07v1.908Z" fill="#fff"/></g><defs><clipPath id="a"><path fill="#fff" transform="translate(80 47)" d="M0 0h310v44H0z"/></clipPath></defs></svg>