<svg width="32" height="32" fill="none" xmlns="http://www.w3.org/2000/svg"><path d="M16.035 32h-.07C7.162 32 0 24.838 0 16.035v-.07C0 7.162 7.162 0 15.965 0h.07C24.838 0 32 7.162 32 15.965v.07C32 24.838 24.838 32 16.035 32Zm-.07-30.917c-8.206 0-14.882 6.676-14.882 14.882v.07c0 8.206 6.676 14.882 14.882 14.882h.07c8.206 0 14.882-6.676 14.882-14.882v-.07c0-8.206-6.676-14.882-14.882-14.882h-.07Z" fill="#F9F7F2"/><path d="M20.783 6.83h-9.566a4.798 4.798 0 0 0-4.793 4.793v8.752a4.798 4.798 0 0 0 4.793 4.793h9.566a4.798 4.798 0 0 0 4.793-4.793v-8.752a4.798 4.798 0 0 0-4.793-4.793ZM8.115 11.623a3.106 3.106 0 0 1 3.102-3.102h9.566a3.106 3.106 0 0 1 3.103 3.102v8.752a3.106 3.106 0 0 1-3.103 3.102h-9.566a3.106 3.106 0 0 1-3.102-3.102v-8.752Z" fill="#F9F7F2"/><path d="M16 20.458c2.457 0 4.458-2 4.458-4.459 0-2.459-2-4.458-4.459-4.458-2.459 0-4.458 2-4.458 4.458 0 2.46 2 4.459 4.458 4.459Zm0-7.225A2.77 2.77 0 0 1 18.766 16a2.77 2.77 0 0 1-2.768 2.768A2.77 2.77 0 0 1 13.232 16a2.77 2.77 0 0 1 2.767-2.767ZM20.871 12.26a1.202 1.202 0 1 0-.002-2.401 1.202 1.202 0 0 0 .002 2.4Z" fill="#F9F7F2"/></svg>