<svg width="1681" height="750" fill="none" xmlns="http://www.w3.org/2000/svg"><path opacity=".2" d="M2085.39 9.108 2065.42.6m19.97 8.508h-59.18m59.18 0 20.64 8.788m-20.64-8.788h41.92M2007.19.6h58.23l7.27.003 7.19.018 7.04.052 6.82.102 6.53.166 6.16.249 5.72.346 5.31.441 4.56.61 4.15.708 1.14.248v5.565M2007.19.6h-58.24m58.24 0 19.02 8.508M1948.95.6h-58.23m58.23 0 18.07 8.508M1890.72.6h-58.24m58.24 0 17.12 8.508M1832.48.6h-58.23m58.23 0 16.17 8.508M1774.25.6h-58.24m58.24 0 15.22 8.508M1716.01.6h-58.23m58.23 0 14.27 8.508M1657.78.6h-58.23m58.23 0 13.32 8.508M1599.55.6h-58.24m58.24 0 12.36 8.508M1541.31.6h-58.23m58.23 0 11.41 8.508M1483.08.6h-58.24m58.24 0 10.46 8.508M1424.84.6h-58.23m58.23 0 9.51 8.508M1366.61.6h-58.24m58.24 0 2.11 2.101 3.21 3.183 3.24 3.224M1308.37.6h-58.23m58.23 0 1.88 2.101 5.73 6.407M1250.14.6h-58.23m58.23 0 6.66 8.508M1191.91.6h-58.24m58.24 0 2.11 3.158 2.15 3.196.72 1.075.72 1.079M1133.67.6h-58.23m58.23 0 1.77 3.158.59 1.06.6 1.066 1.8 3.224M1075.44.6h-58.24m58.24 0 3.8 8.508M1017.2.6l.36 1.048.35 1.053 1.78 5.328.37 1.079M1017.2.6h-58.231m0 0h-58.235m58.235 0 1.902 8.508M900.734.6H842.5m58.234 0 .353 3.158.599 5.35M842.5.6h-58.234M842.5.6v8.508M784.266.6h-58.235m58.235 0-.353 3.158-.598 5.35M726.031.6h-58.234m58.234 0-1.902 8.508M667.797.6l-.352 1.048-.352 1.053-1.787 5.328-.362 1.079M667.797.6h-58.234m0 0h-58.235m58.235 0-3.322 7.429-.483 1.079M551.328.6h-58.234m58.234 0-1.764 3.158-.594 1.06-1.194 2.136-.6 1.075-.603 1.079M493.094.6H434.86m58.234 0-2.117 3.158-2.146 3.196-.72 1.075-.724 1.079M434.86.6h-58.234m58.234 0-6.657 8.508M376.626.6h-58.235m58.235 0L374.747 2.7l-5.729 6.407M318.391.6h-58.234m58.234 0-8.559 8.508M260.157.6h-58.234m58.234 0-9.511 8.508M201.923.6h-58.235m58.235 0-10.462 8.508M143.688.6H85.454m58.234 0-11.412 8.508M85.454.6H27.22m58.234 0L73.09 9.108M27.22.6h-58.234M27.22.6 13.905 9.108M-31.016.6h-58.234m58.235 0-14.267 8.508M-89.249.6h-58.234m58.234 0-15.217 8.508M-147.483.6h-58.234m58.234 0-16.169 8.508M-205.717.6h-58.236m58.236 0-17.12 8.508M-263.953.6h-58.234m58.234 0-18.069 8.508m-160.286 0V3.543l1.14-.248 4.149-.707 4.557-.61 5.311-.442 5.721-.346 6.16-.25 6.526-.165 6.822-.102 7.042-.052 7.192-.018L-380.42.6h58.233m0 0-19.02 8.508M-380.42.6l-19.973 8.508m118.371 0h59.185m-59.185 0h-59.185m59.185 0-18.671 8.788m77.856-8.788-17.688 8.788m17.688-8.788h59.185m118.371 0h59.185m-59.185 0h-59.185m59.185 0-3.639 2.17-11.1 6.618m73.924-8.788L.148 17.896m13.757-8.788H73.09m118.371 0h59.185m-59.185 0h-59.185m59.185 0-2.669 2.17-1.343 1.09-6.798 5.528m69.995-8.788-1.211 1.082-1.215 1.088-7.4 6.618m9.826-8.788h59.186m118.371 0-.848 1.082-6.031 7.707m6.879-8.79h59.184m-59.184 0h-59.185m118.369 0-1.455 2.171-.733 1.09-.735 1.097-2.972 4.431m5.895-8.788h59.186m118.371 0h59.185m-59.185 0h-59.186m59.186 0-2.947 8.788m62.132-8.788-.242 1.082-.242 1.088-.245 1.09-.739 3.303-.497 2.226m1.965-8.79h59.186m118.371 0h59.185m-59.185 0H842.5m59.186 0 .982 8.79m58.203-8.79.242 1.083.242 1.088.245 1.09 1.236 5.528m-1.965-8.788h59.189m118.37 0h59.18m-59.18 0h-59.19m59.19 0 1.21 2.17 2.46 4.393.62 1.11.62 1.116m54.27-8.79 1.46 2.171.73 1.09.74 1.097 2.97 4.431m-5.9-8.788h59.19m118.37 0h59.18m-59.18 0h-59.19m59.19 0 2.18 2.17 1.1 1.09 5.56 5.528m50.34-8.788 1.21 1.082 1.22 1.088 7.4 6.618m-9.83-8.788h59.19m118.37 0h59.19m-59.19 0h-59.19m59.19 0 3.15 2.17 1.59 1.09 8.03 5.528m46.42-8.788 13.75 8.788m-13.75-8.788h59.18m118.37 0h59.19m-59.19 0h-59.18m59.18 0 16.71 8.788m42.48-8.788 17.69 8.788m-17.69-8.788h59.18M-442.516 88.669h.208m59.363 0 22.597-11.228m-22.597 11.228-23.462 11.659m23.462-11.659h68.081m-68.081 0h-59.363m81.96-11.228h-66.825m66.825 0 21.779-10.823m-21.779 10.823h66.825m-133.65 0 22.989-10.823m-22.989 10.823h-15.135m15.135 0-15.135 7.123m81.69-38.456h63.322m-63.322 0 20.661-9.727m-20.661 9.727h-63.321m63.321 0-21.396 10.073m84.718-10.073 19.575-9.727m-19.575 9.727-20.269 10.073m20.269-10.073h63.322m-105.983-9.727h62.236m-62.236 0 19.964-9.398m-19.964 9.398h-62.234m124.47 0h62.234m-62.234 0 18.912-9.398M-442.96 265.902h.652m54.282 0 29.138-18.616m-29.138 18.616-30.587 19.543m30.587-19.543h87.895m-87.895 0h-54.282m83.42-18.616 27.791-17.755m-27.791 17.755h85.813m-85.813 0h-83.42m27.382-17.755h83.829m-83.829 0 28.429-16.953m-28.429 16.953h-27.382m27.382 0-27.382 16.328m82.982-49.484h80.122m-80.122 0 25.996-15.501m-25.996 15.501h-80.121m80.121 0-27.171 16.203m107.293-16.203 24.264-15.501m-24.264 15.501-25.361 16.203m25.361-16.203h80.122m-134.248-15.501h78.39m-78.39 0h-78.388m78.388 0 24.896-14.845m53.494 14.845 23.235-14.845m-23.235 14.845h78.388m-85.125-42.727h73.611m-73.611 0 21.982-13.108m-21.982 13.108h-73.612m73.612 0-22.894 13.652m96.505-13.652 20.517-13.108m-20.517 13.108-21.367 13.652m21.367-13.652h73.613m-125.242-13.108h72.146m-72.146 0h-72.146m72.146 0 21.124-12.597m51.022 12.597 19.716-12.597m-19.716 12.597h72.147m-83.302-36.37h68.08m-68.08 0 18.83-11.228m-18.83 11.228h-68.08m68.08 0-19.552 11.659m87.632-11.659 17.575-11.228m-17.575 11.228-18.248 11.659m18.248-11.659h68.08m-117.33-11.228h66.825m-66.825 0h-66.825m66.825 0 18.149-10.823m48.676 10.823 16.94-10.823m-16.94 10.823h66.825m-81.106-31.333h63.322m-63.322 0 16.311-9.727m-16.311 9.727h-63.321m63.321 0-16.892 10.073m80.214-10.073 15.223-9.727m-15.223 9.727L-59.774 56.18m15.766-10.073h63.322M-91.019 36.38h62.234m-62.234 0 15.762-9.398m-15.762 9.398h-62.234m124.468 0h62.236m-62.236 0 14.712-9.398m-383.204 561.671 41.01-36.683m-41.01 36.683-43.916 39.281m43.916-39.281H-273.3m-123.977 0h-45.031m86.041-36.683 38.385-34.332m-38.385 34.332h119.876m-119.876 0h-86.041m85.208-96.801h109.055m-109.055 0 35.045-28.496M-357.1 455.17l-37.219 30.266m37.219-30.266h-85.208m194.263 0 31.858-28.496m-31.858 28.496-33.836 30.266m33.836-30.266h109.055m-183.065-28.496h105.868m-105.868 0h-105.869m105.869 0 33.055-26.88m72.813 26.88 30.051-26.88m-30.051 26.88h105.869m-117.9-76.306h97.339m-97.339 0 28.008-22.773m-28.008 22.773h-97.337m97.337 0-29.551 24.033m126.89-24.033 25.461-22.773m-25.461 22.773-26.867 24.033m26.867-24.033h97.338m-166.669-22.773h94.792m-94.792 0h-94.792m94.792 0 26.578-21.613m68.214 21.613 24.163-21.613m-24.163 21.613h94.79m-113.714-61.693h87.895m-87.895 0 22.895-18.616m-22.895 18.616h-87.894m87.894 0-24.031 19.543m111.926-19.543 20.813-18.616m-20.813 18.616-21.848 19.543m21.848-19.543h87.895m-152.895-18.616h85.813m-85.813 0h-85.813m85.813 0 21.835-17.755m63.978 17.755 19.85-17.755m-19.85 17.755h85.813m-109.017-50.911h80.121m-80.121 0 19.063-15.501m-19.063 15.501h-80.123m80.123 0-19.927 16.203m100.048-16.203 17.331-15.501m-17.331 15.501-18.114 16.203m18.114-16.203h80.121m-141.179-15.501h78.39m-78.39 0h-78.388m78.388 0 18.257-14.845m60.133 14.845 16.596-14.845m-16.596 14.845h78.388M32.77 138.147h73.611m-73.611 0 16.12-13.108m-16.12 13.108h-73.612m73.612 0-16.788 13.652m90.399-13.652 1.866-1.667 12.789-11.441m-14.655 13.108-15.26 13.652m15.26-13.652h73.613M48.89 125.039h72.146m-72.146 0h-72.146m72.146 0 15.491-12.597m56.655 12.597 14.084-12.597m-14.084 12.597h72.147m-99.567-36.37h68.082m-68.082 0 13.811-11.228m-13.81 11.228h-68.08m68.08 0-14.339 11.659m82.42-11.659 12.553-11.228m-12.553 11.228-4.83 4.321-8.206 7.338m13.036-11.659h68.08M107.427 77.441h66.824m-66.824 0H40.602m66.825 0 13.308-10.823m53.516 10.823 12.099-10.823m-12.099 10.823h66.825m-95.119-31.333h63.323m-63.323 0 11.962-9.727m-11.962 9.727h-63.32m63.32 0L133.571 56.18m75.709-10.073 8.192-7.326 1.343-1.204 1.34-1.197m-10.875 9.727L198.019 56.18m11.261-10.073h63.322M157.919 36.38h62.236m-62.236 0 11.558-9.398m-11.558 9.398H95.685m124.47 0h62.234m-62.234 0 10.506-9.398m-583.019 979.527h170.695m-170.695 0 53.748-68.674m-53.748 68.674-59.061 75.47m59.061-75.47-89.95.01m260.645-.01 46.069-68.674m-46.069 68.674-50.624 75.47m50.624-75.47H-10.97m-287.64-68.674h163.016m-163.016 0 49.121-62.767m-49.121 62.767h-143.698m306.714 0 42.103-62.767m-42.103 62.767H27.422M-162.93 764.462h143.633m-143.633 0 38.33-48.979m-38.33 48.979h-143.632m143.632 0-41.494 53.021m185.127-53.021 32.854-48.979m-32.854 48.979-35.566 53.021m35.566-53.021h143.632m-248.935-48.979H13.558m-138.157 0h-138.157m138.157 0 35.516-45.381m102.64 45.381L44 670.102m-30.442 45.381h138.157M-25.344 588.654H98.634m-123.978 0 28.708-36.683m-28.708 36.683h-123.978m123.978 0-30.741 39.281m154.719-39.281 24.606-36.683m-24.606 36.683-26.35 39.281m26.35-39.281H222.61M3.364 551.971H123.24m-119.876 0h-119.878m119.878 0 26.868-34.332m93.008 34.332 23.031-34.332m-23.031 34.332h119.877m-164-96.801h109.056m-109.055 0 22.302-28.496M79.118 455.17H-29.935m109.053 0-23.685 30.266m132.74-30.266 19.115-28.496m-19.115 28.496-20.302 30.266m20.302-30.266h109.055M101.42 426.674h105.868m-105.868 0H-4.45m105.87 0 21.035-26.88m84.833 26.88 18.03-26.88m-18.03 26.88h105.868m-152.022-76.306h97.339m-97.339 0 17.823-22.773m-17.823 22.773H63.797m97.337 0-18.806 24.033m116.145-24.033 15.276-22.773m-15.276 22.773-16.12 24.033m16.12-24.033h97.338m-176.854-22.773h94.792m-94.792 0H84.165m94.792 0 16.914-21.613m77.878 21.613 14.497-21.613m-14.497 21.613h94.792m-141.303-61.693h87.894m-87.894 0 14.569-18.616m-14.569 18.616h-87.896m87.896 0-15.294 19.543m103.188-19.543 12.488-18.616m-12.488 18.616-13.109 19.543m13.109-19.543h87.894m-161.219-18.616h85.813m-85.813 0h-85.815m85.815 0 13.894-17.755m71.919 17.755 11.91-17.755m-11.91 17.755h85.813m-131.785-50.911h80.122m-80.122 0 12.132-15.501m-12.132 15.501h-80.121m80.121 0-12.68 16.203m92.802-16.203 10.398-15.501m-10.398 15.501-10.868 16.203m10.868-16.203h80.122M293.78 180.874h78.388m-78.388 0h-78.389m78.389 0 11.618-14.845m66.77 14.845 9.959-14.845m-9.959 14.845h78.389m-123.34-42.727h73.613m-73.613 0 10.258-13.108m-10.258 13.108h-73.611m73.611 0-10.684 13.652m84.297-13.652-1.126 1.676-8.032 11.976m9.158-13.652 8.792-13.108m-8.792 13.108h73.611m-136.966-13.108h72.147m-72.147 0H265.33m72.145 0 9.859-12.597m62.288 12.597 8.45-12.597m-8.45 12.597h72.147m-115.831-36.37h68.08m-68.08 0 8.788-11.228m-8.788 11.228h-68.08m68.08 0-9.123 11.659m77.203-11.659 7.532-11.228m-7.532 11.228-2.897 4.321-1.956 2.915-2.967 4.423m7.82-11.659h68.08M374.726 77.441h66.824m-66.824 0h-66.825m66.825 0 8.469-10.823m58.355 10.823 2.755-4.106 1.814-2.705 2.692-4.012m-7.261 10.823h66.825M399.247 46.108h63.321m-63.321 0 5.733-7.326 1.878-2.401m-7.611 9.727h-63.323m63.323 0-6.883 8.794-1 1.279m71.204-10.073 4.915-7.326.806-1.204.804-1.197m-6.525 9.727-3.349 4.991-3.407 5.082m6.756-10.073h63.322M406.858 36.38h62.235m-62.235 0 7.355-9.398m-7.355 9.398h-62.234m124.469 0h62.235m-62.235 0 6.304-9.398M330.418 1006.51h170.694m-170.694 0 23.035-68.674m-23.035 68.674H159.725m170.693 0-25.312 75.47m196.006-75.47 15.357-68.674m-15.357 68.674-16.874 75.47m16.874-75.47h170.695m-318.354-68.674h163.016m-163.016 0H190.437m163.016 0 21.052-62.767m141.964 62.767 14.034-62.767m-14.034 62.767h163.016M411.602 764.462h143.632m-143.632 0 16.427-48.979m-16.427 48.979H267.969m143.633 0-17.784 53.021m161.416-53.021 10.952-48.979m-10.952 48.979-11.855 53.021m11.855-53.021h143.634m-270.839-48.979h138.157m-138.157 0H289.872m138.157 0 15.221-45.381m122.936 45.381 10.147-45.381m-10.147 45.381h138.157M470.567 588.654h123.977m-123.977 0 12.303-36.683m-12.303 36.683H346.59m123.977 0-13.175 39.281m137.152-39.281 8.203-36.683m-8.203 36.683-8.782 39.281m8.782-39.281h123.979M482.87 551.971h119.877m-119.877 0H362.994m119.876 0 11.515-34.332m108.362 34.332 7.677-34.332m-7.677 34.332h119.877M515.337 455.17h109.054m-109.054 0 9.557-28.496m-9.557 28.496H406.282m109.055 0-10.151 30.266m119.205-30.266 6.371-28.496m-6.371 28.496-6.767 30.266m6.767-30.266h109.054m-208.551-28.496h105.868m-105.868 0H419.026m105.868 0 9.015-26.88m96.853 26.88 6.011-26.88m-6.011 26.88h105.87m-186.146-76.306h97.339m-97.339 0 7.638-22.773m-7.638 22.773h-97.338m97.338 0-8.06 24.033m105.399-24.033 5.091-22.773m-5.091 22.773-5.373 24.033m5.373-24.033h97.338m-187.039-22.773h94.792m-94.792 0h-94.791m94.791 0 7.25-21.613m87.542 21.613 4.833-21.613m-4.833 21.613h94.792m-168.892-61.693h87.894m-87.894 0 6.243-18.616m-6.243 18.616h-87.894m87.894 0-6.554 19.543m94.448-19.543 4.164-18.616m-4.164 18.616-4.369 19.543m4.369-19.543h87.896m-169.547-18.616h85.815m-85.815 0h-85.813m85.813 0 2.268-6.756 3.688-10.999m79.859 17.755 3.969-17.755m-3.969 17.755h85.813m-154.552-50.911h80.121m-80.121 0 5.2-15.501m-5.2 15.501h-80.122m80.122 0-4.052 12.085-1.383 4.118m85.556-16.203 1.319-5.893 2.148-9.608m-3.467 15.501-3.622 16.203m3.622-16.203h80.123m-155.044-15.501.633-1.891 4.345-12.954m-4.978 14.845h78.388m-78.388 0h-78.39m156.778 0 1.262-5.642.415-1.861.415-1.849 1.227-5.493m-3.319 14.845h78.389m-142.448-42.727h73.612m-73.612 0 2.221-6.62.548-1.634.545-1.627.543-1.617.54-1.61m-4.397 13.108h-73.611m73.611 0-4.578 13.652m78.19-13.652 2.209-9.881.363-1.617.359-1.61m-2.931 13.108-3.052 13.652m3.052-13.652h73.613m-142.828-13.108h72.146m-72.146 0h-72.146m72.146 0 2.66-7.931.524-1.564 1.041-3.102m67.921 12.597 1.773-7.931.351-1.564.346-1.555.347-1.547m-2.817 12.597h72.147M638.26 88.669h68.08m-68.08 0 3.766-11.228m-3.766 11.228h-68.082m68.082 0-.965 2.873-1.463 4.363-1.483 4.423m71.991-11.659-.321 1.433-1.956 8.744-.33 1.482m2.607-11.659 2.511-11.228m-2.511 11.228h68.08M642.026 77.441h66.825m-66.825 0h-66.825m66.825 0 3.629-10.823m63.196 10.823.918-4.106.302-1.356.303-1.35.896-4.01m-2.419 10.822h66.824m-123.14-31.333h63.321m-63.321 0 2.457-7.326.804-2.401m-3.261 9.727h-63.323m63.323 0-1.254 3.735-.421 1.256-.424 1.263-1.281 3.819m66.701-10.073.277-1.234.547-2.454.545-2.43.805-3.61m-2.174 9.728-1.117 4.991-.281 1.263-.568 2.54-.286 1.279m2.252-10.073h63.322M655.796 36.38h62.234m-62.234 0 2.764-8.24.389-1.158m-3.153 9.398h-62.234m124.468 0 .268-1.193.265-1.187.265-1.182.262-1.177.783-3.502.26-1.157m-2.103 9.398h62.236m232.924 970.129h170.7m-170.7 0-7.67-68.674m7.67 68.674H842.5m170.69 0 8.44 75.47m162.26-75.47-15.36-68.674m15.36 68.674 16.87 75.47m-16.87-75.47h170.69m-349.06-68.674h163.01m-163.01 0H842.5m163.02 0-7.021-62.767m170.031 62.767-14.03-62.767m14.03 62.767h163.02M986.132 764.462h143.638m-143.638 0-5.475-48.979m5.475 48.979H842.5m143.632 0 5.929 53.021m137.709-53.021-10.96-48.979m10.96 48.979 11.85 53.021m-11.85-53.021h143.63m-292.743-48.979h138.153m-138.153 0H842.5m138.157 0-5.074-45.381m143.227 45.381-10.14-45.381m10.14 45.381h138.16M966.477 588.654h123.983m-123.983 0-4.1-36.683m4.1 36.683H842.5m123.977 0 4.393 39.281m119.59-39.281-8.21-36.683m8.21 36.683 8.78 39.281m-8.78-39.281h123.97m-252.053-36.683h119.873m-119.873 0H842.5m119.877 0-3.839-34.332m123.712 34.332-7.67-34.332m7.67 34.332h119.88M951.555 455.17h109.055m-109.055 0-3.187-28.496m3.187 28.496H842.5m109.055 0 3.383 30.266m105.672-30.266-6.37-28.496m6.37 28.496 6.77 30.266m-6.77-30.266h109.05m-221.292-28.496h105.872m-105.872 0H842.5m105.868 0-3.004-26.88m108.876 26.88-6.01-26.88m6.01 26.88h105.87m-220.272-76.306h97.342m-97.342 0-2.546-22.773m2.546 22.773H842.5m97.338 0 2.687 24.033m94.655-24.033-5.1-22.773m5.1 22.773 5.37 24.033m-5.37-24.033h97.33m-197.218-22.773h94.788m-94.788 0H842.5m94.792 0-2.417-21.613m97.205 21.613-4.83-21.613m4.83 21.613h94.8m-196.486-61.693h87.896m-87.896 0-2.081-18.616m2.081 18.616H842.5m87.894 0 2.186 19.543m85.71-19.543-4.16-18.616m4.16 18.616 4.37 19.543m-4.37-19.543h87.89m-177.867-18.616h85.817m-85.817 0H842.5m85.813 0-1.985-17.755m87.802 17.755-3.97-17.755m3.97 17.755h85.81m-177.319-50.911h80.119m-80.119 0-1.733-15.501m1.733 15.501H842.5m80.121 0 1.812 16.203m78.307-16.203-3.038-13.6-.425-1.901m3.463 15.501 3.63 16.203m-3.63-16.203h80.12m-161.972-15.501-.21-1.891-1.449-12.954m1.659 14.845h78.389m-78.389 0H842.5m156.777 0-1.262-5.642-.415-1.861-.414-1.849-1.228-5.493m3.319 14.845h78.393m-161.558-42.727h73.612m-73.612 0-1.466-13.108m1.466 13.108H842.5m73.612 0 .564 5.053.192 1.703.19 1.71.385 3.448.196 1.738m72.085-13.652-2.209-9.881-.723-3.227m2.932 13.108 3.052 13.652m-3.052-13.652h73.616m-148.694-13.108h72.146m-72.146 0H842.5m72.146 0-1.408-12.597m73.554 12.597-1.772-7.931-.351-1.564-.346-1.555-.347-1.547m2.816 12.597h72.148m-148.36-36.37h68.08m-68.08 0-1.255-11.228m1.255 11.228H842.5m68.08 0 1.304 11.659m66.776-11.659.321 1.433 1.956 8.744.33 1.482m-2.607-11.659-2.51-11.228m2.51 11.228h68.08M909.325 77.441h66.825m-66.825 0H842.5m66.825 0-1.21-10.823m68.035 10.823-.919-4.106-.302-1.356-.303-1.35-.896-4.01m2.42 10.822h66.82M905.823 46.108h63.322m-63.322 0-1.089-9.727m1.089 9.727H842.5m63.323 0 1.125 10.073m62.197-10.073-.277-1.234-.549-2.454-.272-1.219-.542-2.42-.267-1.203-.27-1.197m2.177 9.727 1.116 4.991.281 1.263.569 2.54.285 1.279m-2.251-10.073h63.325M904.734 36.38l-.132-1.193-.134-1.187-.131-1.182-.653-5.836m1.05 9.398h62.234m-62.234 0H842.5m124.468 0h62.232m-62.232 0-.531-2.38-.265-1.182-.262-1.177-.783-3.502-.26-1.157m731.103 979.527h170.69m-170.69 0-38.39-68.674m38.39 68.674h-170.69m170.69 0 42.19 75.47m128.5-75.47-46.07-68.674m46.07 68.674 50.63 75.47m-50.63-75.47h170.7m-379.78-68.674h163.01m-163.01 0h-163.02m163.02 0-35.09-62.767m198.1 62.767-42.1-62.767m42.1 62.767h163.02m-422.95-173.374h143.64m-143.64 0-27.37-48.979m27.37 48.979h-143.63m143.63 0 29.64 53.021m114-53.021-32.86-48.979m32.86 48.979 35.56 53.021m-35.56-53.021h143.63m-314.64-48.979h138.15m-138.15 0h-138.16m138.16 0-25.37-45.381m163.52 45.381L1641 670.102m30.44 45.381h138.16m-347.21-126.829h123.98m-123.98 0-20.51-36.683m20.51 36.683h-123.98m123.98 0 21.96 39.281m102.02-39.281-24.61-36.683m24.61 36.683 26.35 39.281m-26.35-39.281h123.97m-268.46-36.683h119.88m-119.88 0h-119.87m119.87 0-19.19-34.332m139.07 34.332-23.03-34.332m23.03 34.332h119.88m-293.87-96.801h109.06m-109.06 0-15.93-28.496m15.93 28.496h-109.05m109.05 0 16.92 30.266m92.14-30.266-19.12-28.496m19.12 28.496 20.3 30.266m-20.3-30.266h109.05m-234.04-28.496h105.87m-105.87 0h-105.87m105.87 0-15.02-26.88m120.89 26.88-18.03-26.88m18.03 26.88h105.87m-254.39-76.306h97.34m-97.34 0-12.73-22.773m12.73 22.773h-97.34m97.34 0 13.43 24.033m83.91-24.033-15.28-22.773m15.28 22.773 16.12 24.033m-16.12-24.033h97.34m-207.41-22.773h94.79m-94.79 0h-94.79m94.79 0-12.08-21.613m106.87 21.613-14.5-21.613m14.5 21.613h94.79m-224.07-61.693h87.9m-87.9 0-10.4-18.616m10.4 18.616h-87.89m87.89 0 10.93 19.543m76.97-19.543-12.49-18.616m12.49 18.616 13.11 19.543m-13.11-19.543h87.89m-186.19-18.616h85.81m-85.81 0h-85.82m85.82 0-9.93-17.755m95.74 17.755-11.91-17.755m11.91 17.755h85.81m-200.08-50.911 1.11 1.987 1.12 1.996 6.83 12.22m-9.06-16.203h80.12m-80.12 0-8.67-15.501m8.67 15.501h-80.12m160.24 0-10.4-15.501m10.4 15.501 10.87 16.203m-10.87-16.203h80.12m-168.91-15.501h78.39m-78.39 0h-78.39m78.39 0-8.29-14.845m86.68 14.845-9.96-14.845m9.96 14.845h78.39m-180.66-42.727h73.61m-73.61 0-7.33-13.108m7.33 13.108h-73.61m73.61 0 7.63 13.652m65.98-13.652-5.54-8.254-3.25-4.854m8.79 13.108 9.16 13.652m-9.16-13.652h73.61m-154.55-13.108h72.15m-72.15 0h-72.14m72.14 0-6.17-11.05-.87-1.547m79.19 12.597-8.45-12.597m8.45 12.597h72.14m-164.62-36.37h68.08m-68.08 0-1.59-2.847-4.68-8.381m6.27 11.228h-68.08m68.08 0 1.61 2.873 3.26 5.83 1.65 2.956m61.56-11.659-7.53-11.228m7.53 11.228 2.9 4.321 1.95 2.915 2.97 4.423m-7.82-11.659h68.08m-142.43-11.228h66.82m-66.82 0h-66.83m66.83 0-4.56-8.156-1.5-2.667m72.88 10.823-2.75-4.106-1.82-2.705-2.69-4.012m7.26 10.823h66.82m-151.16-31.333h63.32m-63.32 0-3.42-6.119-2.02-3.608m5.44 9.727h-63.32m63.32 0 5.63 10.073m57.69-10.073-4.91-7.326-.81-1.204-.8-1.197m6.52 9.727 3.35 4.991 3.41 5.082m-6.76-10.073h63.32m-132.08-9.727h62.24m-62.24 0-2.65-4.74-1.3-2.339-.65-1.162-.65-1.157m5.25 9.398h-62.23m124.47 0h62.23m-62.23 0-6.31-9.398m876.31 688.5h-138.15m138.15 0-45.66-45.381m45.66 45.381h41.4m-41.4 0 41.4 41.14M1958.3 588.654h123.98m-123.98 0-36.91-36.683m36.91 36.683h-123.98m123.98 0 39.52 39.281m84.46-39.281-41.01-36.683m41.01 36.683 43.91 39.281m-43.91-39.281h45.03m-205.92-36.683h119.88m-119.88 0h-119.88m119.88 0-34.55-34.332m154.43 34.332-38.39-34.332m38.39 34.332h86.04m-303.32-96.801h109.06m-109.06 0-28.67-28.496m28.67 28.496h-109.05m109.05 0 30.45 30.266m78.61-30.266-31.86-28.496m31.86 28.496 33.83 30.266m-33.83-30.266h109.05m-246.78-28.496h105.87m-105.87 0h-105.87m105.87 0-27.05-26.88m132.92 26.88-30.05-26.88m30.05 26.88h105.87m-288.52-76.306h97.34m-97.34 0-22.91-22.773m22.91 22.773h-97.34m97.34 0 24.18 24.033m73.16-24.033-25.46-22.773m25.46 22.773 26.87 24.033m-26.87-24.033h97.34m-217.59-22.773h94.79m-94.79 0h-94.79m94.79 0-21.75-21.613m116.54 21.613-24.16-21.613m24.16 21.613h94.79m-251.66-61.693h87.9m-87.9 0-18.73-18.616m18.73 18.616h-87.89m87.89 0 19.67 19.543m68.23-19.543-20.82-18.616m20.82 18.616 21.85 19.543m-21.85-19.543h87.89m-194.52-18.616h85.81m-85.81 0h-85.81m85.81 0-17.86-17.755m103.67 17.755-19.85-17.755m19.85 17.755h85.82m-222.85-50.911h80.12m-80.12 0-15.6-15.501m15.6 15.501h-80.13m80.13 0 16.3 16.203m63.82-16.203-17.33-15.501m17.33 15.501 18.11 16.203m-18.11-16.203h80.12M1548 180.874h78.39m-78.39 0h-78.39m78.39 0-14.94-14.845m93.33 14.845-16.6-14.845m16.6 14.845h78.38m-199.76-42.727h73.61m-73.61 0-13.19-13.108m13.19 13.108h-73.62m73.62 0 13.73 13.652m59.88-13.652-14.66-13.108m14.66 13.108 15.26 13.652m-15.26-13.652h73.61m-160.41-13.108h72.14m-72.14 0h-72.15m72.15 0-12.68-12.597m84.82 12.597-14.08-12.597m14.08 12.597h72.15m-180.89-36.37h68.08m-68.08 0-11.3-11.228m11.3 11.228h-68.08m68.08 0 2.89 2.873 1.46 1.448 7.38 7.338m56.35-11.659-12.55-11.228m12.55 11.228 13.04 11.659m-13.04-11.659h68.08m-147.46-11.228h66.83m-66.83 0h-66.82m66.82 0-10.88-10.823m77.71 10.823-12.1-10.823m12.1 10.823h66.82M1412.4 46.108h63.32m-63.32 0-9.79-9.727m9.79 9.727h-63.32m63.32 0 10.13 10.073m53.19-10.073-8.19-7.326-1.35-1.204-1.33-1.197m10.87 9.727 11.26 10.073m-11.26-10.073h63.32m-136.43-9.727h62.24m-62.24 0-8.29-8.24-1.17-1.158m9.46 9.398h-62.23m124.47 0h62.23m-62.23 0-10.51-9.398m653.55 323.385-33.1-22.773m33.1 22.773h-97.33m97.33 0 19.42 13.359m-19.42-13.359h19.42m-52.52-22.773H1980m94.79 0-31.41-21.613m31.41 21.613h52.52m-142.18-61.693h87.9m-87.9 0-27.06-18.616m27.06 18.616h-87.89m87.89 0 28.4 19.543m59.5-19.543-29.14-18.616m29.14 18.616 30.58 19.543m-30.58-19.543h54.28m-169.24-18.616h85.82m-85.82 0h-85.81m85.81 0-25.8-17.755m111.62 17.755-27.79-17.755m27.79 17.755h83.42m-243.23-50.911h80.12m-80.12 0-22.53-15.501m22.53 15.501h-80.12m80.12 0 23.55 16.203m56.57-16.203-24.26-15.501m24.26 15.501 25.36 16.203m-25.36-16.203h80.13m-182.78-15.501h78.39m-78.39 0h-78.39m78.39 0-21.57-14.845m99.96 14.845-23.23-14.845m23.23 14.845h78.39m-218.88-42.727h73.61m-73.61 0-19.05-13.108m19.05 13.108h-73.61m73.61 0 19.84 13.652m53.77-13.652-20.51-13.108m20.51 13.108 21.37 13.652m-21.37-13.652h73.62m-166.28-13.108h72.15m-72.15 0h-72.14m72.14 0-18.31-12.597m90.46 12.597-19.72-12.597m19.72 12.597h72.15m-197.16-36.37h68.08m-68.08 0-16.32-11.228m16.32 11.228h-68.08m68.08 0 16.95 11.659m51.13-11.659-17.57-11.228m17.57 11.228 18.25 11.659m-18.25-11.659h68.08m-152.48-11.228h66.83m-66.83 0h-66.82m66.82 0-15.73-10.823m82.56 10.823-16.94-10.823m16.94 10.823h66.82m-179.18-31.333h63.32m-63.32 0-14.14-9.727m14.14 9.727h-63.33m63.33 0 14.63 10.073m48.69-10.073-15.23-9.727m15.23 9.727 15.76 10.073m-15.76-10.073h63.32m-140.78-9.727h62.23m-62.23 0-13.66-9.398m13.66 9.398h-62.24m124.47 0h62.24m-62.24 0-14.71-9.398m394.83 111.164-24.91-13.108m24.91 13.108h-73.61m73.61 0 25.95 13.652m-25.95-13.652h33.41m-58.32-13.108h-72.15m72.15 0-23.94-12.597m23.94 12.597h58.32m-127.45-36.37h68.08m-68.08 0-21.34-11.228m21.34 11.228h-68.08m68.08 0 22.16 11.659m45.92-11.659-22.59-11.228m22.59 11.228 23.47 11.659m-23.47-11.659h59.37m-148.79-11.228h66.83m-66.83 0h-66.82m66.82 0-20.57-10.823m87.4 10.823-21.78-10.823m21.78 10.823h66.82m-193.2-31.333h63.33m-63.33 0-18.48-9.727m18.48 9.727h-63.32m63.32 0 19.15 10.073m44.18-10.073-19.58-9.727m19.58 9.727 20.27 10.073m-20.27-10.073h63.32m-145.13-9.727h62.23m-62.23 0-17.86-9.398m17.86 9.398h-62.24m124.47 0h62.24m-62.24 0-18.91-9.398m58.76 29.198 21 10.437m-21-10.437h64.44m-64.44 0h-64.45m107.5-10.073-20.66-9.727m20.66 9.727 21.39 10.073m-21.39-10.073h63.32m-83.98-9.727h62.23m-62.23 0-19.97-9.398m-61.18 0h-61.18m61.18 0h61.18m-61.18 0-18.28-9.087m141.48 38.285 22.18 10.437m-22.18-10.437h60.3m-18.37-10.073-21.75-9.727m21.75 9.727 18.37 8.214m-18.37-8.214h18.37m-40.12-9.727-21.01-9.398m21.01 9.398h40.12m-122.32-9.398h61.19m-61.19 0-19.3-9.087m80.49 9.087-20.32-9.087m20.32 9.087h61.13m-103.74 39.635h65.62m-65.62 0h-65.62m154.22 10.823-22.98-10.823m22.98 10.823 15.14 7.123m-15.14-7.123h15.14m-38.12-10.823h38.12m-169.36 0h-65.61m65.61 0-19.83-10.437m0 0h-64.45m217.74 44.147 24.38 12.114m-24.38-12.114h-69.39m69.39 0h35.9m.21-11.659h-.21m-11.52 23.773h-70.74m70.74 0 11.52 5.726m-11.52-5.726h11.52m-82.26 0h-70.74m70.74 0-23.03-12.114m0 0h-69.38m-207.87-44.147 16.34 10.437m-16.34-10.437h64.45m-64.45 0h-64.45m112.01-10.073-16.31-9.727m16.31 9.727 16.89 10.073m-16.89-10.073h63.32m-79.63-9.727h62.23m-62.23 0-15.76-9.398m-61.19 0h61.19m-61.19 0-14.22-9.087m14.22 9.087h-61.18m171.33 29.198 17.5 10.437m-17.5-10.437h64.45m-18.02-10.073-17.4-9.727m17.4 9.727 18.02 10.073m-35.42-19.8-16.81-9.398m-61.18 0h61.18m-61.18 0-15.24-9.087m128.65 38.285 18.67 10.437m-9.71-39.635h-61.19m61.19 0-17.27-9.087m-43.92 9.087-16.25-9.087m-44.08 48.722h65.61m-65.61 0h-65.62m149.38 10.823-18.15-10.823m18.15 10.823 18.83 11.228m-18.83-11.228h66.83m-84.98-10.823h65.62m-196.85 0h-65.61m65.61 0-15.17-10.437m212.02 10.437 19.36 10.823m-231.38-21.26h-64.44m247.82 32.488 19.56 11.659m-19.56-11.659h68.08m-20.08-11.228 20.08 11.228m0 0 20.86 11.659m-138.77 0 18.96 12.114m-18.96-12.114h69.39m-69.39 0h-69.38m138.77 0 20.31 12.114m-20.31-12.114h69.38m0 0 21.67 12.114m-141.48 0h70.74m-70.74 0h-70.74m162.61 12.597-21.13-12.597m21.13 12.597 21.98 13.108m-21.98-13.108h72.14m-93.27-12.597h70.74m-212.22 0h-70.73m70.73 0-17.6-12.114m229.82 12.114 22.53 12.597m-252.35-24.711h-69.38m271.57 37.819 22.89 13.652m-22.89-13.652h73.61m-23.45-13.108 23.45 13.108m0 0 24.42 13.652m-150.28 0 22.28 14.23m-22.28-14.23h75.14m-75.14 0h-75.14m150.28 0 23.86 14.23m-23.86-14.23h75.14m0 0 25.45 14.23m-25.45-14.23h75.14m0 0h7.46m-7.46 0 7.46 3.925m-210.6 10.305h76.72m-76.72 0h-76.73m178.35 14.845-24.9-14.845m24.9 14.845 26 15.501m-26-15.501h78.39m-103.29-14.845h76.73m-230.18 0h-76.73m76.73 0-20.69-14.23m250.87 14.23 26.56 14.845m-26.56-14.845h57.15m-308.02-14.23h-75.13m300.17 44.576 27.17 16.203m-27.17-16.203h80.12m-27.73-15.501 27.73 15.501m-27.73-15.501h30.59m.4-14.845h-.4m-2.86 30.346 2.86 1.6m-2.86-1.6h2.86m-137.75 16.203 26.54 16.953m-26.54-16.953h81.94m-81.94 0h-81.93m163.87 0 28.43 16.953m-28.43-16.953h55.81m.69-14.216-.69-.387m-111.21 31.556h83.83m-83.83 0h-83.83m167.66 0h27.38m-27.38 0 27.38 16.328m-195.04-16.328h-83.83m83.83 0-24.64-16.953m0 0h-81.93m277.91 72.867h-90.08m90.08 0 23.7 15.138m-23.7-15.138h23.7m.65-19.543h-.65m-113.78 19.543h-90.08m90.08 0 29.85 20.537m84.19-5.232-.26-.167M1486.98 56.181l11.67 10.437m-11.67-10.437h64.45m-64.45 0h-64.45m116.51-10.073-11.96-9.727m11.96 9.727 12.39 10.073m-12.39-10.073h63.32m-75.28-9.727h62.23m-62.23 0-11.56-9.398m-61.18 0h61.18m-61.18 0-3.85-3.443-6.31-5.643m10.16 9.086h-61.19m158.28 29.198 12.84 10.437m-12.84-10.437h64.45m-13.52-10.073-13.05-9.727m13.05 9.727 13.52 10.073m-26.57-19.8-12.6-9.398m-61.19 0h61.19m-61.19 0-11.17-9.087m111.53 38.285 14 10.437m8.01-39.635-13.21-9.087m13.21 9.087h-61.18m0 0-1.55-1.154-3.07-2.289-7.57-5.643m-65.87 48.721h65.62m-65.62 0h-65.61m144.53 10.823-13.3-10.823m13.3 10.823 13.81 11.228m-13.81-11.228h66.83m-80.13-10.823h65.61m-196.84 0h-65.62m65.62 0-10.51-10.437m207.35 10.437 14.52 10.823m-221.87-21.26h-64.45m233.3 32.488 14.34 11.659m-14.34-11.659h68.08m-15.06-11.228 1.85 1.38 13.21 9.848m0 0 15.65 11.659m-138.77 0 1.66 1.489 11.88 10.625m-13.54-12.114h69.38m-69.38 0h-69.39m138.77 0 14.9 12.114m-14.9-12.114h69.39m0 0 16.25 12.114m-141.48 0h70.74m-70.74 0h-70.74m156.97 12.597-15.49-12.597m15.49 12.597 16.12 13.108m-16.12-13.108h72.15m-87.64-12.597h70.74m-212.22 0h-70.74m70.74 0-12.19-12.114m224.41 12.114 16.9 12.597m-241.31-24.711h-69.38m254.66 37.819 16.79 13.652m-16.79-13.652h73.61m-17.58-13.108 17.58 13.108m0 0 18.32 13.652m-150.28 0 15.91 14.23m-15.91-14.23h75.14m-75.14 0h-75.14m150.28 0 17.5 14.23m-17.5-14.23h75.14m0 0 19.09 14.23m-153.46 0h76.73m-76.73 0h-76.73m171.71 14.845-18.25-14.845m18.25 14.845 19.07 15.501m-19.07-15.501h78.39m-96.64-14.845h76.73m-230.19 0h-76.73m76.73 0-14.32-14.23m244.51 14.23 19.91 14.845m-264.42-29.075h-75.14m280.24 44.576 19.92 16.203m-19.92-16.203h80.12m-20.8-15.501 20.8 15.501m0 0 21.74 16.203m-163.87 0 18.95 16.953m-18.95-16.953h81.93m-81.93 0h-81.93m163.86 0 20.85 16.953m-20.85-16.953h81.94m0 0 22.74 16.953m-167.66 0h83.83m-83.83 0h-83.82m189.49 17.755-21.84-17.755m21.84 17.755 22.89 18.616m-22.89-18.616h85.81m-107.65-17.755h83.83m-251.48 0h-83.83m83.83 0-17.06-16.953m268.54 16.953 23.82 17.755m-292.36-34.708h-81.93m311.37 53.324 24.03 19.543m-24.03-19.543h87.9m-24.98-18.616 24.98 18.616m0 0 26.21 19.543m-180.15 0 22.96 20.537m-22.96-20.537h90.07m-90.07 0h-90.08m180.15 0 25.26 20.537m-25.26-20.537h90.08m0 0 27.56 20.537m-184.75 0h92.37m-92.37 0h-92.38m211.33 21.613-26.58-21.613m26.58 21.613 28.01 22.773m-28.01-22.773H1980m-121.37-21.613h92.38m-277.13 0h-92.38m92.38 0-20.66-20.537m297.79 20.537 28.99 21.613m-28.99-21.613h92.37m-390.16-20.537h-90.08m350.08 64.923 29.55 24.033m-29.55-24.033h97.34M1980 327.595l30.56 22.773m32.82-44.386h83.93m-116.75 44.386 32.23 24.033m-200.04 0 28.39 25.393m-28.39-25.393h100.02m-100.02 0h-100.03m200.05 0 31.23 25.393m-31.23-25.393h100.02m0 0 34.07 25.393m-34.07-25.393h84.52m-256.17 25.393H1974m-102.86 0h-102.87m238.79 26.88-33.06-26.88m33.06 26.88 35.04 28.496m-35.04-28.496h105.86M1974 399.794h102.86m-308.59 0h-102.86m102.86 0-25.55-25.393m334.14 25.393 36.06 26.88m-36.06-26.88h50.45m-384.59-25.393H1642.7m399.4 80.769 37.22 30.266m-37.22-30.266h85.21m-14.39-28.496h14.39m-14.39 0 14.39 10.722m-160.43 48.04 36 32.203m-36-32.203h112.44m-112.44 0h-112.44m224.88 0 39.6 32.203m-39.6-32.203h47.99m-124.43 32.203h116.04m-116.04 0h-116.04m232.08 0 8.39 6.819m-8.39-6.819h8.39m-240.47 0h-116.03m116.03 0-32.4-32.203m0 0H1742m384.19 142.499h-128.37m128.37 0h1.12m-1.12 0 1.12.997m-129.49-.997h-128.36m128.36 0 42.43 42.167M1229.19 56.181l2.59 3.87.88 1.302 3.53 5.265m-7-10.437h64.45m-64.45 0h-64.45m121.01-10.073-5.73-7.326-1.88-2.401m7.61 9.727 6.89 8.794 1 1.279m-7.89-10.073h63.33m-70.94-9.727h62.24m-62.24 0-7.35-9.398m-61.19 0h61.19m-61.19 0-2.31-3.443-3.78-5.643m6.09 9.086h-61.18m145.22 29.198 2.01 2.573 6.16 7.864m-8.17-10.437h64.44m-9-10.073-8.7-9.727m8.7 9.727 9 10.073m-17.7-19.8-6.34-7.079-2.07-2.319m-61.18 0h61.18m-61.18 0-7.11-9.087m94.4 38.285 9.34 10.437m25.73-39.635-1.15-1.154-7.99-7.933m9.14 9.087h-61.18m0 0-3.08-3.443-5.05-5.643m-87.65 48.721h65.62m-65.62 0h-65.62m139.7 10.823-8.46-10.823m8.46 10.823 8.79 11.228m-8.79-11.228h66.83m-75.29-10.823h65.61m-196.85 0h-65.61m65.61 0-5.83-10.437m202.68 10.437 9.68 10.823m-212.36-21.26h-64.45m218.77 32.488 5.66 7.236 1.15 1.466 2.32 2.957m-9.13-11.659h68.08m-10.04-11.228 10.04 11.228m0 0 10.43 11.659m-138.77 0 8.13 12.114m-8.13-12.114h69.39m-69.39 0h-69.38m138.77 0 9.48 12.114m-9.48-12.114h69.38m0 0 10.83 12.114m-141.47 0h70.74m-70.74 0h-70.74m151.33 12.597-6.2-7.931-1.22-1.564-2.43-3.102m9.85 12.597 10.26 13.108m-10.26-13.108h72.15m-82-12.597h70.73m-212.21 0h-70.74m70.74 0-6.77-12.114m218.98 12.114 11.27 12.597m-230.25-24.711h-69.39m237.75 37.819 10.69 13.652m-10.69-13.652h73.61m-11.72-13.108 11.72 13.108m0 0 12.21 13.652m-150.27 0 4.72 7.039 1.2 1.785 3.62 5.406m-9.54-14.23h75.14m-75.14 0h-75.14m150.28 0 11.13 14.23m-11.13-14.23h75.13m0 0 12.73 14.23m-153.46 0h76.73m-76.73 0h-76.72m165.07 14.845-11.62-14.845m11.62 14.845 12.13 15.501m-12.13-15.501h78.39m-90.01-14.845h76.73m-230.18 0h-76.73m76.73 0-2.03-3.614-5.93-10.616m238.14 14.23 13.28 14.845m-251.42-29.075h-75.14m260.3 44.576 12.68 16.203m-12.68-16.203h80.12m-13.86-15.501 13.86 15.501m0 0 14.5 16.203m-163.87 0 11.37 16.953m-11.37-16.953h81.93m-81.93 0h-81.93m163.86 0 13.27 16.953m-13.27-16.953h81.94m0 0 15.16 16.953m-167.66 0h83.83m-83.83 0h-83.83m181.55 17.755-13.89-17.755m13.89 17.755 14.57 18.616m-14.57-18.616h85.82m-99.71-17.755h83.83m-251.49 0h-83.83m83.83 0-9.47-16.953m260.96 16.953 15.88 17.755m-276.84-34.708h-81.94m287.53 53.324 15.3 19.543m-15.3-19.543h87.9m-16.65-18.616 16.65 18.616m0 0 17.48 19.543m-180.16 0 13.77 20.537m-13.77-20.537h90.08m-90.08 0h-90.08m180.16 0 16.07 20.537m-16.07-20.537h90.08m0 0 18.36 20.537m-184.75 0h92.38m-92.38 0h-92.37m201.66 21.613-16.91-21.613m16.91 21.613 17.83 22.773m-17.83-22.773h94.8m-111.71-21.613h92.37m-277.12 0H1212m92.38 0-11.48-20.537m288.6 20.537 19.34 21.613m-307.94-42.15h-90.08m321.05 64.923 18.8 24.033m-18.8-24.033h97.33m-20.36-22.773 20.36 22.773m0 0 21.5 24.033m-200.05 0 17.03 25.393m-17.03-25.393h100.02m-100.02 0h-100.03m200.05 0 19.88 25.393m-19.88-25.393h100.03m0 0 22.71 25.393m-205.73 0h102.87m-102.87 0h-102.86m226.76 26.88-21.03-26.88m21.03 26.88 22.3 28.496m-22.3-28.496h105.87m-126.9-26.88h102.86m-308.59 0h-102.87m102.87 0-14.2-25.393m322.79 25.393 24.04 26.88m-346.83-52.273H1242.6m363.28 80.769 23.69 30.266m-23.69-30.266h109.06m-25.49-28.496 25.49 28.496m0 0 27.06 30.266m-224.87 0 21.6 32.203m-21.6-32.203h112.44m-112.44 0h-112.44m224.88 0 25.2 32.203m-25.2-32.203H1742m0 0 28.81 32.203m-232.08 0h116.04m-116.04 0h-116.04m258.95 34.332-26.87-34.332m26.87 34.332 28.7 36.683m-28.7-36.683h119.87m-146.74-34.332h116.04m-348.12 0h-116.04m116.04 0-18-32.203m366.12 32.203 30.7 34.332m-396.82-66.535h-112.44m418.09 103.218 30.75 39.281m-30.75-39.281h123.98m-32.81-36.683 32.81 36.683m0 0 35.14 39.281m-256.74 0 28.28 42.167m-28.28-42.167h128.37m-128.37 0h-128.37m256.74 0 32.99 42.167m-32.99-42.167h128.37m0 0 37.71 42.167m-266.17 0h133.08m-133.08 0h-133.08m301.68 45.381-35.52-45.381m35.52 45.381 38.33 48.979m-38.33-48.979h138.16m-173.68-45.381h133.09m-399.25 0h-133.09m133.09 0-23.57-42.167m422.82 42.167 40.59 45.381m-40.59-45.381h133.08m-555.9-42.167h-128.37m491.95 136.527 41.49 53.021m-41.49-53.021h143.63m-43.8-48.979 43.8 48.979m48.69-94.36h87.06m-135.75 94.36 47.42 53.021m-47.42-53.021h135.75m-387.45 53.021 38.63 57.586m-38.63-57.586h149.56m-149.56 0H1590.3m299.12 0 45.07 57.586m-45.07-57.586h149.56m0 0 51.51 57.586m-51.51-57.586h88.33m-348.82 57.586h156m-156 0h-156m361.12 62.767-49.12-62.767m49.12 62.767 53.75 68.674m-53.75-68.674h143.7m-192.82-62.767h156m-468 0h-156m156 0-32.19-57.586m500.19 57.586h36.82m-36.82 0 36.82 41.169m-537.01-98.755h-149.56m596.62 189.027 59.06 75.47m-59.06-75.47h89.95m-210.02 75.47 55.89 83.32m-55.89-83.32h179.13m-179.13 0h-179.13m358.26 0 30.89 39.48m-30.89-39.48h30.89m0 83.32h-342.58m0 0h-188.45m188.45 0-46.57-83.32m0 0h-179.13M971.396 56.18l.288 1.285.287 1.29.291 1.295.29 1.303.882 3.94.296 1.325m-2.334-10.437h64.444m-64.444 0h-64.448m125.522-10.073-2.46-7.326-.81-2.401m3.27 9.727 2.09 6.254 1.28 3.819m-3.37-10.073h63.32m-66.59-9.727h62.24m-62.24 0-2.37-7.079-.78-2.319m-61.183 0-.257-1.154-1.019-4.561-.755-3.372m2.031 9.087h61.183m-61.183 0h-61.183m132.156 29.198.43 1.284.44 1.29.43 1.295.44 1.303 1.76 5.265m-3.5-10.437h64.45m-4.5-10.073-3.28-7.326-1.07-2.401m4.35 9.727 4.5 10.073m-8.85-19.8-2.12-4.74-1.57-3.5-.51-1.158m-61.19 0-.38-1.154-.77-2.289-.77-2.272-.37-1.13-.76-2.242m3.05 9.087h61.19m13.05 29.198 3.49 7.792 1.18 2.645m43.46-39.635-3.83-6.844-1.25-2.242m5.08 9.086h-61.18m0 0-3.57-7.968-.5-1.119M973.73 66.618h65.61m-65.61 0h-65.615m134.855 10.823-3.63-10.823m3.63 10.823 3.77 11.228m-3.77-11.228h66.83m-70.46-10.823h65.62m-196.845 0H842.5m65.615 0-1.167-10.437m198.012 10.437 4.84 10.823M906.948 56.18H842.5m204.24 32.488.97 2.873 1.46 4.363 1.48 4.423m-3.91-11.659h68.08m-5.02-11.228.62 1.38 4.4 9.848m0 0 .64 1.433.65 1.44.64 1.448 3.28 7.338m-138.763 0 2.709 12.114m-2.709-12.114h69.383m-69.383 0h-69.383m138.766 0 4.06 12.114m-4.06-12.114h69.38m0 0 4.05 9.041.68 1.533.69 1.54m-141.474 0h70.734m-70.734 0h-70.738m145.702 12.597.54 1.61.54 1.617.55 1.627 2.77 8.254m-4.4-13.108-2.13-6.361-.53-1.57-.52-1.564-1.05-3.102m4.23 12.597h72.15m-76.38-12.597h70.74m-212.212 0H842.5m70.738 0-1.354-12.114m213.566 12.114 5.64 12.597m-219.206-24.711H842.5m220.84 37.819 3.99 11.914.58 1.738m-4.57-13.652h73.61m-5.86-13.108 1.44 3.227 4.42 9.881m0 0 2.26 5.053 3.84 8.599m-150.274 0 1.575 7.039.398 1.785 1.209 5.406m-3.182-14.23h75.134m-75.134 0h-75.137m150.271 0 4.78 14.23m-4.78-14.23h75.14m0 0 6.37 14.23m-153.462 0h76.732m-76.732 0h-76.729m158.441 14.845-4.98-14.845m4.98 14.845 5.19 15.501m-5.19-15.501h78.38m-83.36-14.845h76.73m-230.191 0H842.5m76.729 0-.405-3.614-.794-7.115-.391-3.501m231.781 14.23 6.63 14.845m-238.411-29.075H842.5m240.36 44.576 4.06 12.085 1.38 4.118m-5.44-16.203h80.13m-6.94-15.501 6.94 15.501m0 0 3.58 8.012 3.66 8.191m-163.86 0 3.79 16.953m-3.79-16.953h81.93m-81.93 0h-81.937m163.867 0 5.69 16.953m-5.69-16.953h81.93m0 0 7.58 16.953m-167.65 0h83.83m-83.83 0h-83.832m173.612 17.755-1.52-4.517-4.43-13.238m5.95 17.755 6.24 18.616m-6.24-18.616h85.81m-91.76-17.755h83.82m-251.482 0H842.5m83.828 0-1.895-16.953m253.377 16.953 7.94 17.755m-261.317-34.708H842.5m263.68 53.324 6.56 19.543m-6.56-19.543h87.9m-8.33-18.616 8.33 18.616m0 0 8.74 19.543m-180.16 0 4.59 20.537m-4.59-20.537h90.08m-90.08 0h-90.08m180.16 0 6.89 20.537m-6.89-20.537h90.08m0 0 9.18 20.537m-184.75 0h92.38m-92.38 0h-92.375m192.005 21.613-7.25-21.613m7.25 21.613 7.63 22.773m-7.63-22.773h94.79m-102.04-21.613H1212m-277.125 0H842.5m92.375 0-2.015-18.026-.28-2.511M1212 305.982l9.67 21.613m-289.09-42.15H842.5m292.01 64.923 8.06 24.033m-8.06-24.033h97.34m-10.18-22.773 7.58 16.968 2.6 5.805m0 0 10.75 24.033m-200.05 0 5.68 25.393m-5.68-25.393h100.02m-100.02 0H942.525m200.045 0 8.52 25.393m-8.52-25.393h100.03m0 0 11.35 25.393m-205.72 0h102.86m-102.86 0H945.364m214.746 26.88-9.02-26.88m9.02 26.88 9.55 28.496m-9.55-28.496h105.86m-114.88-26.88h102.86m-308.586 0H842.5m102.864 0-2.839-25.393m311.425 25.393 12.02 26.88m-323.445-52.273H842.5m327.16 80.769 10.15 30.266m-10.15-30.266h109.06m-12.75-28.496 12.75 28.496m0 0 13.53 30.266m-224.87 0 7.2 32.203m-7.2-32.203h112.43m-112.43 0H954.938m224.872 0 10.8 32.203m-10.8-32.203h112.44m0 0 14.4 32.203m-232.07 0h116.03m-116.03 0H958.538m243.592 34.332-11.52-34.332m11.52 34.332 12.3 36.683m-12.3-36.683h119.88m-131.4-34.332h116.04m-348.112 0H842.5m116.038 0-3.6-32.203m351.712 32.203 15.36 34.332m-367.072-66.535H842.5m371.93 103.218 13.18 39.281m-13.18-39.281h123.98m-16.4-36.683 16.4 36.683m0 0 17.57 39.281m-256.74 0 9.43 42.167m-9.43-42.167h128.37m-128.37 0H970.87m256.74 0 14.14 42.167m-14.14-42.167h128.37m0 0 18.85 42.167m-266.16 0h133.08m-133.08 0H975.583m281.387 45.381-15.22-45.381m15.22 45.381 16.43 48.979m-16.43-48.979h138.16m-153.38-45.381h133.08m-399.247 0H842.5m133.083 0-4.713-42.167m403.96 42.167 20.3 45.381m-424.26-87.548H842.5m430.9 136.527 17.78 53.021m-17.78-53.021h143.63m-21.9-48.979 21.9 48.979m0 0 23.71 53.021m-299.12 0 12.88 57.586m-12.88-57.586h149.56m-149.56 0H992.061m299.119 0 19.32 57.586m-19.32-57.586h149.56m0 0 25.75 57.586m-311.99 0h156m-156 0H998.499m333.051 62.767-21.05-62.767m21.05 62.767 23.03 68.674m-23.03-68.674h163.01m-184.06-62.767h155.99m-467.991 0H842.5m155.999 0-6.438-57.586m474.429 57.586 28.07 62.767M992.061 817.483H842.5m512.08 189.027 25.31 75.47m-25.31-75.47h170.7m-30.72-68.674 30.72 68.674m0 0 33.75 75.47m-358.27 0 18.63 83.32m-18.63-83.32h179.13m-179.13 0h-179.13m358.26 0 27.95 83.32m-27.95-83.32h179.14m0 0 37.25 83.32m-188.44 0h-188.45m188.45 0h188.44m-376.89 0h-188.44m0 0H842.5m188.45 0-9.32-83.32m0 0H842.5M713.604 56.18l-.287 1.285-.288 1.29-.29 1.295-.291 1.303-.586 2.62-.296 1.32-.296 1.325m2.334-10.437h64.448m-64.448 0h-64.449m130.023-10.073 1.088-9.727m-1.088 9.727-1.126 10.073m1.126-10.073H842.5m-62.234-9.727.132-1.193.134-1.187.131-1.182.653-5.836m-1.05 9.398H842.5m-122.367-9.398.257-1.154 1.02-4.561.754-3.372m-2.031 9.087h61.183m-61.183 0h-61.184m119.103 29.198-.144 1.284-.143 1.29-.146 1.295-.734 6.568m1.167-10.437H842.5m0-10.073V36.38m0 9.727V56.18m0-19.8v-9.398m-61.184 0H842.5m-61.184 0 .385-3.443.128-1.139.503-4.505M842.5 56.181v10.437m61.184-39.635-.384-3.443-.129-1.139-.126-1.133-.127-1.13-.124-1.123-.126-1.119m1.016 9.087H842.5m0 0v-9.087M711.27 66.618h65.615m-65.615 0h-65.615m130.02 10.823-.155 1.38-.154 1.387-.946 8.461m1.255-11.228 1.21-10.823m-1.21 10.823H842.5m-65.615-10.823H842.5m-196.845 0h-65.614m65.614 0 .886-2.645.442-1.313.438-1.307.437-1.303.434-1.296.434-1.289.429-1.284M842.5 66.618v10.823M649.155 56.18h-64.448M774.42 88.669l-1.304 11.659m1.304-11.659h68.08m0-11.228v11.228m0 0v11.659m-138.767 0-2.709 12.114m2.709-12.114h69.383m-69.383 0h-69.384m138.767 0-1.354 12.114m1.354-12.114H842.5m0 0v12.114m-141.476 0h70.738m-70.738 0h-70.738m140.068 12.597 1.408-12.597m-1.408 12.597-1.465 13.108m1.465-13.108H842.5m-70.738-12.597H842.5m-212.214 0h-70.738m70.738 0 4.063-12.114M842.5 112.442v12.597m-208.151-24.711h-69.384m203.924 37.819-.565 5.053-.574 5.132-.388 3.467m1.527-13.652H842.5m0-13.108v13.108m0 0v13.652m-150.276 0-1.575 7.039-.397 1.785-1.21 5.406m3.182-14.23h75.138m-75.138 0h-75.138m150.276 0-.391 3.501-.795 7.115-.404 3.614m1.59-14.23H842.5m0 0v14.23m-153.458 0h76.73m-76.73 0h-76.729m151.799 14.845.21-1.891 1.45-12.954m-1.66 14.845-1.733 15.501m1.733-15.501H842.5m-76.728-14.845H842.5m-230.187 0h-76.728m76.728 0 4.773-14.23m225.414 14.23v14.845m-225.414-29.075h-75.139m220.432 44.576-1.812 16.203m1.812-16.203H842.5m0-15.501v15.501m0 0v16.203m-163.866 0-3.791 16.953m3.791-16.953h81.933m-81.933 0H596.7m163.867 0-1.895 16.953m1.895-16.953H842.5m0 0v16.953m-167.657 0h83.829m-83.829 0h-83.828m165.672 17.755 1.985-17.755m-1.985 17.755-2.081 18.616m2.081-18.616H842.5m-83.828-17.755H842.5m-251.485 0h-83.828m83.828 0 5.685-16.953m245.8 16.953v17.755m-245.8-34.708h-81.933m239.839 53.324-2.186 19.543m2.186-19.543H842.5m0-18.616v18.616m0 0v19.543m-180.159 0-4.592 20.537m4.592-20.537h90.079m-90.079 0h-90.079m180.158 0-2.295 20.537m2.295-20.537h90.08m0 0v20.537m-184.751 0h92.376m-92.376 0h-92.375m182.334 21.613 2.417-21.613m-2.417 21.613-2.545 22.773m2.545-22.773H842.5m-92.375-21.613H842.5m-277.126 0h-92.377m92.377 0 6.888-20.537M842.5 305.982v21.613m-270.238-42.15h-90.08m262.981 64.923-2.688 24.033m2.688-24.033H842.5m0-22.773v22.773m0 0v24.033m-200.048 0-5.679 25.393m5.679-25.393h100.023m-100.023 0H542.426m200.049 0-2.839 25.393m2.839-25.393H842.5m0 0v25.393m-205.727 0h102.863m-102.863 0H533.909m202.723 26.88 3.004-26.88m-3.004 26.88-3.187 28.496m3.187-28.496H842.5m-102.864-26.88H842.5m-308.591 0H431.046m102.863 0 8.517-25.393M842.5 399.794v26.88m-300.074-52.273H442.402m291.043 80.769-3.383 30.266m3.383-30.266H842.5m0-28.496v28.496m0 0v30.266m-224.876 0-7.2 32.203m7.2-32.203h112.438m-112.438 0H505.186m224.876 0-3.6 32.203m3.6-32.203H842.5m0 0v32.203m-232.076 0h116.038m-116.038 0H494.385m228.239 34.332 3.838-34.332m-3.838 34.332-4.101 36.683m4.101-36.683H842.5m-116.038-34.332H842.5m-348.115 0H378.347m116.038 0 10.801-32.203M842.5 517.639v34.332m-337.314-66.535H392.748m325.775 103.218-4.393 39.281m4.393-39.281H842.5m0-36.683v36.683m0 0v39.281m-256.738 0-9.429 42.167m9.429-42.167H714.13m-128.368 0h-128.37m256.738 0-4.713 42.167m4.713-42.167H842.5m0 0v42.167m-266.167 0h133.084m-133.084 0H443.25m261.093 45.381 5.074-45.381m-5.074 45.381-5.475 48.979m5.475-48.979H842.5m-133.083-45.381H842.5m-399.25 0H310.167m133.083 0 14.142-42.167M842.5 670.102v45.381m-385.108-87.548H329.023m369.845 136.527-5.929 53.021m5.929-53.021H842.5m0-48.979v48.979m0 0v53.021m-299.121 0-12.876 57.586m12.876-57.586h149.56m-149.56 0H393.818m299.121 0-6.437 57.586m6.437-57.586H842.5m0 0v57.586m-311.997 0h155.999m-155.999 0H374.505m304.98 62.767 7.017-62.767m-7.017 62.767-7.678 68.674m7.678-68.674H842.5m-155.998-62.767H842.5m-467.995 0H218.506m155.999 0 19.313-57.586M842.5 875.069v62.767M393.818 817.483H244.259m427.548 189.027-8.439 75.47m8.439-75.47H842.5m0-68.674v68.674m0 0v75.47m-358.262 0-18.63 83.32m18.63-83.32h179.13m-179.13 0H305.106m358.262 0-9.314 83.32m9.314-83.32H842.5m0 0v83.32m-188.446 0H465.608m188.446 0H842.5m-376.892 0H277.162m0 0H88.715m188.447 0 27.944-83.32m0 0H125.975M455.812 56.18l-3.469 5.173-3.532 5.265m7.001-10.437h64.448m-64.448 0h-64.448M525.89 46.108l5.438-9.727m-5.438 9.727-5.63 10.073m5.63-10.073h63.322m-57.884-9.727h62.234m-62.234 0 3.956-7.079 1.297-2.319m-61.184 0h61.184m-61.184 0 2.31-3.443 3.785-5.643m-6.095 9.086h-61.184M520.26 56.181l-5.834 10.437m5.834-10.437h64.447m4.505-10.073 4.35-9.727m-4.35 9.727-4.505 10.073m8.855-19.8 2.12-4.74 1.566-3.5.516-1.158m-61.183 0h61.183m-61.183 0 3.825-6.844 1.254-2.242m43.047 38.284-3.485 7.792-1.181 2.645m78.908-39.635.386-1.154.768-2.289 1.14-3.401.754-2.242m-3.048 9.086h-61.185m0 0 .516-1.154 1.025-2.289 2.522-5.643M448.811 66.617h65.615m-65.615 0h-65.616m125.18 10.823.77-1.375.764-1.37 3.024-5.41 1.493-2.668m-6.051 10.823-4.685 8.38-1.592 2.848m6.277-11.228h66.826m-60.775-10.823h65.615m-196.846 0H317.58m65.615 0 6.153-7.864 2.016-2.573m188.677 10.437-4.84 10.823M391.364 56.18h-64.449m175.183 32.488-.8 1.433-.806 1.44-2.437 4.363-.822 1.466-1.651 2.957m6.516-11.659h68.08m5.023-11.228-.618 1.38-4.405 9.848m0 0-.639 1.433-.645 1.44-.647 1.448-3.282 7.338m-138.767 0-8.126 12.114m8.126-12.114h69.384m-69.384 0h-69.383m138.767 0-6.772 12.114m6.772-12.114h69.383m0 0-5.417 12.114m-141.476 0h70.738m-70.738 0h-70.738m134.435 12.597 7.041-12.597m-7.041 12.597-7.328 13.108m7.328-13.108h72.146m-65.105-12.597h70.738m-212.214 0h-70.738m70.738 0 9.481-12.114m202.733 12.114-5.633 12.597m-197.1-24.711H287.43m187.011 37.819-7.631 13.652m7.631-13.652h73.612m5.862-13.108-1.444 3.227-4.418 9.881m0 0-2.261 5.053-2.295 5.132-1.55 3.467m-150.275 0-4.723 7.039-4.822 7.191m9.545-14.23h75.138m-75.138 0h-75.139m150.277 0-7.955 14.23m7.955-14.23h75.137m0 0-6.362 14.23m-153.458 0h76.728m-76.728 0h-76.729m145.159 14.845 8.298-14.845m-8.298 14.845-8.665 15.501m8.665-15.501h78.388m-70.09-14.845h76.73m-230.187 0h-76.73m76.73 0 11.135-14.23m219.052 14.23-6.64 14.845m-212.412-29.075h-75.137m200.496 44.576-2.227 3.983-6.83 12.22m9.057-16.203h80.121m6.932-15.501-6.932 15.501m0 0-.888 1.987-2.694 6.025-3.664 8.191m-163.865 0-11.372 16.953m11.372-16.953h81.933m-81.933 0h-81.934m163.867 0-9.477 16.953m9.477-16.953h81.932m0 0-7.58 16.953m-167.657 0h83.828m-83.828 0h-83.829m157.732 17.755 6.258-11.194 3.667-6.561m-9.925 17.755-10.407 18.616m10.407-18.616h85.813m-75.888-17.755h83.829m-251.486 0h-83.828m83.828 0 13.267-16.953m238.219 16.953-7.941 17.755m-230.278-34.708h-81.933m215.991 53.324-10.923 19.543m10.923-19.543h87.896m8.324-18.616-8.324 18.616m0 0-8.74 19.543m-180.159 0-13.777 20.537m13.777-20.537h90.08m-90.08 0h-90.079m180.159 0-11.481 20.537m11.481-20.537h90.079m0 0-9.185 20.537m-184.751 0h92.376m-92.376 0h-92.375m172.67 21.613 12.081-21.613m-12.081 21.613-12.73 22.773m12.73-22.773h94.792m-82.711-21.613h92.375m-277.126 0h-92.375m92.375 0 16.073-20.537m261.053 20.537-9.664 21.613m-251.389-42.15h-90.079m233.946 64.923-13.433 24.033m13.433-24.033h97.337m10.185-22.773-10.185 22.773m0 0-10.746 24.033m-200.049 0-17.035 25.393m17.035-25.393h100.025m-100.025 0H142.328m200.05 0-14.196 25.393m14.196-25.393h100.024m0 0-11.356 25.393m-205.728 0h102.864m-102.864 0H122.455m190.701 26.88 15.026-26.88m-15.026 26.88-15.928 28.496m15.928-28.496h105.87m-90.844-26.88h102.864m-308.591 0H19.591m102.864 0 19.873-25.393m288.718 25.393-12.02 26.88m-276.698-52.273H42.304m254.924 80.769-16.918 30.266m16.918-30.266h109.054m12.744-28.496-12.744 28.496m0 0-13.534 30.266m-224.877 0-21.6 32.203m21.6-32.203H280.31m-112.439 0H55.433m224.877 0-18.001 32.203m18.001-32.203h112.438m0 0-14.401 32.203m-232.076 0h116.038m-116.038 0H30.232m212.885 34.332 19.192-34.332m-19.192 34.332-20.506 36.683m20.506-36.683h119.877m-100.685-34.332h116.038m-348.115 0H-85.806m116.038 0 25.201-32.203m322.914 32.203-15.353 34.332m-307.56-66.535H-57.006m279.616 103.218-21.957 39.281m21.957-39.281H346.59m16.404-36.683-16.404 36.683m0 0-17.567 39.281m-256.739 0L44 670.102m28.284-42.167h128.37m-128.37 0h-128.37m256.74 0-23.571 42.167m23.571-42.167h128.369m0 0-18.856 42.167m-266.167 0h133.083m-133.083 0H-89.084m240.799 45.381 25.368-45.381m-25.368 45.381-27.379 48.979m27.379-48.979h138.157m-112.789-45.381h133.084m-399.25 0h-133.084m133.084 0 32.998-42.167m366.252 42.167-20.295 45.381m-345.957-87.548h-128.37m308.791 136.527-29.638 53.021m29.638-53.021h143.633m21.903-48.979-21.903 48.979m0 0-23.71 53.021m-299.121 0-38.629 57.586m38.629-57.586h149.56m-149.56 0h-149.561m299.12 0-32.19 57.586m32.19-57.586H244.26m0 0-25.753 57.586m-311.997 0H62.508m-155.999 0h-155.998m276.91 62.767 35.087-62.767m-35.086 62.767-38.392 68.674m38.392-68.674h163.015m-127.93-62.767h155.999m-467.995 0h-155.999m155.999 0 45.066-57.586m422.929 57.586-28.069 62.767m-394.86-120.353h-149.56M-10.97 1006.51l-42.186 75.47m42.186-75.47h170.695m30.712-68.674-30.712 68.674m0 0-33.75 75.47m-358.262 0-55.89 83.32m55.89-83.32h179.131m-179.131 0h-179.132m358.263 0-46.574 83.32m46.574-83.32h179.131m0 0-37.26 83.32m-531.023 0H-99.73m0 0H88.715m-500.134-83.32-30.889 39.48m30.889-39.48h-30.889M198.019 56.18 186.35 66.619m11.669-10.437h64.448m-64.448 0h-64.448m139.031-10.073 9.787-9.727m-9.787 9.727L262.467 56.18m10.135-10.073h63.322m-53.535-9.727h62.235m-62.235 0 9.457-9.398m-61.185 0h61.185m-61.185 0 3.85-3.443 6.309-5.643m-10.159 9.086h-61.184m92.99 29.198-10.502 10.437m10.502-10.437h64.448m9.009-10.073 8.7-9.727m-8.7 9.727-9.009 10.073m17.709-19.8 6.331-7.079 2.075-2.319m-61.184 0 1.159-1.154 7.983-7.933m-9.142 9.087h61.184m-26.115 29.198-9.335 10.437m96.633-39.635 7.111-9.087m-7.111 9.087H353.03m0 0 3.079-3.443 5.047-5.643M186.35 66.617h65.615m-65.615 0h-65.615m120.341 10.823 10.889-10.823m-10.889 10.823-11.298 11.228m11.298-11.228h66.825m-55.936-10.823h65.615m-196.845 0H55.12m65.615 0 12.836-10.437M317.58 66.618l-9.679 10.823m-174.33-21.26H69.123m160.655 32.488-2.892 2.873-8.84 8.786m11.732-11.659h68.08m10.043-11.228-10.043 11.228m0 0-10.428 11.659m-138.768 0-1.663 1.489-11.879 10.625m13.542-12.114h69.384m-69.384 0H79.278m138.768 0-12.188 12.114m12.188-12.114h69.384m0 0-1.331 1.489-9.503 10.625m-141.476 0h70.738m-70.738 0H64.381m128.802 12.597 12.675-12.597m-12.675 12.597-13.189 13.108m13.189-13.108h72.147m-59.472-12.597h70.738m-212.215 0H-6.357m70.738 0 14.897-12.114m197.318 12.114-11.266 12.597M79.279 100.328H9.895m170.099 37.819-13.737 13.652m13.737-13.652h73.612m11.724-13.108-11.724 13.108m0 0-12.21 13.652m-150.276 0-15.909 14.23m15.91-14.23h75.136m-75.137 0H15.982m150.275 0-14.317 14.23m14.317-14.23h75.139m0 0-12.728 14.23m-153.457 0h76.729m-76.729 0h-76.73m138.522 14.845 14.937-14.845m-14.937 14.845-15.599 15.501m15.599-15.501h78.388m-63.451-14.845h76.728m-230.186 0h-76.729m76.729 0 17.5-14.23m212.686 14.23-13.277 14.845m-199.41-29.075h-75.138m180.561 44.576-16.302 16.203m16.302-16.203h80.123m13.864-15.501-13.864 15.501m0 0-14.492 16.203m-163.867 0L4.216 229.531m18.953-16.953h81.933m-81.934 0h-81.933m163.867 0-17.057 16.953m17.057-16.953h81.933m0 0-15.162 16.953m-167.657 0h83.829m-83.829 0h-83.828m149.791 17.755 17.866-17.755m-17.866 17.755-18.731 18.616m18.731-18.616h85.813m-67.947-17.755h83.828m-251.485 0h-83.828m83.828 0 20.847-16.953m230.638 16.953-15.881 17.755m-214.757-34.708h-81.933m192.146 53.324-19.663 19.543m19.663-19.543h87.894m16.65-18.616-16.65 18.616m0 0-17.477 19.543m-180.16 0-22.96 20.537m22.96-20.537h90.08m-90.08 0h-90.078m180.158 0L11.12 305.982m20.665-20.537h90.08m0 0-18.369 20.537m-184.751 0h92.374m-92.374 0h-92.377m163.005 21.613 21.747-21.613m-21.747 21.613-22.914 22.773m22.914-22.773h94.792m-73.046-21.613h92.377m-277.128 0h-92.375m92.375 0 25.259-20.537m251.869 20.537-19.331 21.613m-232.538-42.15h-90.08m204.912 64.923-24.18 24.033m24.18-24.033h97.338m20.368-22.773-20.368 22.773m0 0-21.493 24.033m-200.05 0-28.39 25.393m28.39-25.393h100.025m-100.025 0h-100.023m200.048 0-25.551 25.393m25.551-25.393H42.304m0 0-22.713 25.393m-205.727 0h102.864m-102.864 0H-289m178.682 26.88 27.046-26.88m-27.046 26.88-28.672 28.496m28.672-28.496H-4.449m-78.823-26.88H19.59m-308.591 0h-102.863m102.863 0 31.231-25.393m277.36 25.393-24.04 26.88m-253.32-52.273h-100.025m218.804 80.769-30.453 30.266m30.453-30.266h109.055m25.486-28.496-25.486 28.496m0 0-27.07 30.266m-224.876 0-36.001 32.203m36.001-32.203h112.438m-112.438 0h-112.438m224.876 0-32.401 32.203m32.401-32.203h112.438m0 0-28.8 32.203m-232.077 0h116.038m-116.038 0h-116.039m197.53 34.332 34.547-34.332m-34.547 34.332-36.909 36.683m36.909-36.683h119.877m-85.33-34.332h116.038m-348.115 0 39.602-32.203m-39.602 32.203h-8.387m8.387 0-8.387 6.819m356.502-6.819-30.708 34.332m-277.805-66.535h-47.989M-273.3 588.654l-39.524 39.281m39.524-39.281h123.978m32.808-36.683-32.808 36.683m0 0-35.133 39.281m-256.738 0h128.369m-128.369 0h-1.115m1.115 0-1.115.997m129.484-.997-42.428 42.167m42.428-42.167h128.369m0 0-37.712 42.167m-178.746 45.381 45.661-45.381m-45.661 45.381h138.157m-138.157 0h-41.395m41.395 0-41.395 41.14m87.056-86.521h133.085m-133.085 0h-87.056m220.141 0-40.589 45.381m0 0-43.805 48.979m0 0-47.422 53.021m47.422-53.021h-135.747m88.325 53.021-51.505 57.586m51.505-57.586h-88.325m36.82 57.586h-36.82m36.82 0-36.82 41.169M-59.774 56.181-76.11 66.618m16.336-10.437h64.45m-64.45 0h-64.448M19.314 46.108l14.137-9.727m-14.137 9.727L4.675 56.18m14.64-10.073h63.321M33.451 36.38h62.234m-62.234 0 13.66-9.398m-61.184 0H47.11m-61.183 0 14.22-9.087m-14.22 9.087h-61.184M4.675 56.181l-15.17 10.437m15.17-10.437h64.448m13.513-10.073 13.05-9.727m-13.05 9.727L69.123 56.18m26.562-19.8 12.609-9.398m-61.184 0 1.674-1.154 11.532-7.933M47.11 26.983h61.184m-39.17 29.198L55.12 66.618m114.357-39.635 11.174-9.087m-11.174 9.087h-61.183m0 0 1.546-1.154 10.643-7.933M-76.11 66.618h65.615m-65.615 0h-65.615m115.5 10.823 15.73-10.823m-15.73 10.823-16.32 11.228m16.32-11.228h66.827m-51.097-10.823H55.12m-196.845 0h-65.614m65.614 0 17.503-10.437M55.12 66.618 40.602 77.441m-164.824-21.26h-64.448m146.126 32.488-16.945 11.659m16.945-11.659h68.08m15.066-11.228-1.854 1.38-13.212 9.848m0 0L9.895 100.328m-138.767 0-18.961 12.114m18.961-12.114h69.383m-69.383 0h-69.384m138.767 0-17.606 12.114m17.606-12.114H9.895m0 0-16.252 12.114m-141.476 0h70.738m-70.738 0h-70.738m123.17 12.597 18.306-12.597m-18.307 12.597-19.051 13.108m19.051-13.108h72.146m-53.839-12.597h70.738m-212.214 0h-70.738m70.738 0 20.315-12.114m191.9 12.114-16.9 12.597m-175-24.711h-69.384m153.187 37.819-19.841 13.652m19.841-13.652h73.611m17.586-13.108-17.586 13.108m0 0-18.315 13.652m-150.276 0-22.272 14.23m22.272-14.23h75.139m-75.139 0h-75.138m150.277 0-20.681 14.23m20.681-14.23h75.137m0 0-19.09 14.23m-153.458 0h76.73m-76.73 0h-76.729m131.882 14.845 21.577-14.845m-21.577 14.845-22.53 15.501m22.53-15.501h78.39m-56.813-14.845h76.728m-230.187 0h-76.728m76.728 0 23.863-14.23m206.324 14.23-19.916 14.845m-186.408-29.075h-75.137m160.626 44.576-23.549 16.203m23.549-16.203h80.121m20.798-15.501-20.798 15.501m0 0-21.737 16.203m-163.867 0-26.532 16.953m26.532-16.953h81.934m-81.934 0h-81.932m163.866 0-24.638 16.953m24.638-16.953h81.933m0 0-22.742 16.953m-167.657 0h83.828m-25.806 17.755 25.806-17.755m-25.806 17.755-27.056 18.616m27.056-18.616h85.815m-60.009-17.755h83.829m0 0-23.82 17.755m-199.237-34.708h-55.811m142.177 53.324-28.402 19.543m28.402-19.543h87.895m24.976-18.616-24.976 18.616m0 0-26.217 19.543m-180.16 0h90.08m-90.08 0h-23.695m23.695 0-23.695 15.138m113.775-15.138-29.85 20.537m29.85-20.537h90.08m0 0-27.554 20.537m-123.787 21.613 31.411-21.613m-31.411 21.613-33.099 22.773m33.099-22.773h94.792m-94.792 0h-52.514m83.925-21.613h92.376m-92.376 0h-83.925m176.301 0-28.995 21.613m-147.567-26.845.261-.167m19.415 49.785h97.338m-97.338 0h-19.415m19.415 0-19.415 13.359m147.306-36.132-30.553 22.773m0 0-32.239 24.033m0 0-34.069 25.393m34.069-25.393h-84.514m14.384 52.273 36.061-26.88m-36.061 26.88h-14.384m14.384 0-14.384 10.722m50.445-37.602h-50.445m124.743-343.613-21.004 10.437m21.004-10.437h64.448m-64.448 0h-64.449m148.04-10.073 18.487-9.727m-18.487 9.727-19.143 10.073m19.143-10.073h63.323m-44.836-9.727h62.234m-62.234 0 17.861-9.398m-61.183 0h61.183m-61.183 0 18.284-9.087m-18.284 9.087h-61.184m66.876 29.198-19.837 10.437m19.837-10.437h64.447m18.019-10.073 17.398-9.727m-17.398 9.727L-188.67 56.18m35.417-19.8 16.811-9.398m-61.184 0h61.184m-61.184 0 17.27-9.087m-8.314 38.285-18.669 10.437m132.082-39.635 15.237-9.087m-15.237 9.087h-61.185m0 0 16.254-9.087m-218.381 48.722h65.615m-65.615 0h-65.615m110.661 10.823 20.569-10.823m-20.569 10.823-21.341 11.228m21.341-11.228h66.824m-46.255-10.823h65.615m-196.845 0 22.17-10.437m-22.17 10.437h-38.124m234.969 0-19.36 10.823m-155.315-21.26h-60.294m127.444 32.488-22.159 11.659m22.159-11.659h68.08m20.085-11.228-20.085 11.228m0 0-20.856 11.659m-138.767 0-24.378 12.114m24.378-12.114h69.384m-69.384 0h-35.901m105.285 0-23.024 12.114m23.024-12.114h69.383m0 0-21.669 12.114m-94.678 12.597 23.94-12.597m-23.94 12.597-24.913 13.108m24.913-13.108h72.146m-72.146 0h-58.321m82.261-12.597h-70.738m70.738 0h70.738m-141.476 0-11.523 5.726m11.523-5.726h-11.523m152.999 0-22.532 12.597m-97.059 13.108-25.947 13.652m25.947-13.652h73.611m-73.611 0h-33.408m130.467-13.108-23.448 13.108m0 0-24.419 13.652m-75.139 0h75.139m-75.139 0-7.461 3.925m7.461-3.925h-7.461m82.6 0-25.454 14.23m-26.556 14.845 26.556-14.845m-26.556 14.845-27.729 15.501m27.729-15.501h-30.59m57.146-14.845h-57.146m-.402 0h.402m2.861 30.346h-2.861m2.861 0-2.861 1.6m-.692.387.692-.387m18.369-151.867 21.748-9.727m-21.748 9.727h-18.369m18.369 0-18.369 8.214m40.117-17.941 21.014-9.398m-21.014 9.398h-40.117m122.315-9.398 19.3-9.087m-19.3 9.087h-61.184m0 0 20.316-9.087m-20.316 9.087h-61.131m2127.158-9.087h60.17m-60.17 0h-60.17m105.6-8.788 3.64 2.17 11.1 6.618m-14.74-8.788h59.19m-44.45 8.788h60.17m-15.72-8.788 3.88 2.17 1.95 1.09 9.89 5.528m0 0h60.17m0 0h60.17m-300.85 0h-60.16m361.01 0h60.16m0 0-18.67-8.788m18.67 8.788h60.17m-78.84-8.788h59.19m-582.03 8.788h60.17m-60.17 0h-60.17m109.53-8.788 2.67 2.17 1.34 1.09 6.8 5.528m-10.81-8.788h59.18m-48.37 8.788h60.17m-11.8-8.788 11.8 8.788m-180.51 0h-60.17m-120.33 0h60.17m-60.17 0h-60.17m113.46-8.788.85 1.082.85 1.088.85 1.09 4.33 5.528m-6.88-8.788h59.18m-52.3 8.788h60.16m-7.86-8.788 7.86 8.788m-180.5 0h-60.17m-120.334 0H1023m-60.164 0h-60.168m117.392-8.788 2.94 8.788m-2.94-8.788h59.18M1023 17.896h60.17m-3.93-8.788.49 1.082.48 1.088.49 1.09 2.47 5.528m-180.502 0H842.5m-120.336 0h60.168m-60.168 0h-60.167m121.318-8.788-.983 8.788m.983-8.788H842.5m-60.168 8.788H842.5m0-8.788v8.788m-180.503 0h-60.17m-120.335 0h60.168m-60.168 0h-60.168m125.249-8.788-1.213 2.17-2.457 4.393-1.243 2.226m4.913-8.79h59.185m-64.098 8.79h60.167m3.931-8.79-.484 1.083-.486 1.088-.489 1.09-2.472 5.528m-180.503 0h-60.168m-120.336 0h60.168m-60.168 0h-60.169m129.181-8.788-2.184 2.17-1.099 1.09-5.561 5.528m8.844-8.788h59.186m-68.03 8.788h60.168m7.862-8.788-.969 1.082-6.893 7.707m-180.505 0h-60.168m-120.335 0h60.168m-60.168 0H-60.02m133.11-8.79-3.154 2.171-1.588 1.09-8.032 5.528M73.09 9.108h59.186m-71.96 8.788h60.167m11.793-8.788-1.454 1.082-10.339 7.707m-180.503 0h-60.168m-120.337 0h60.169m-60.169 0h-60.168m137.041-8.79-16.704 8.79m16.704-8.79h59.186m-75.89 8.79h60.168m15.722-8.79-3.882 2.171-1.954 1.09-9.886 5.528m-180.505 0h-60.168m-39.532-8.788-20.635 8.788m20.635-8.788h59.186m-59.186 0h-41.915m21.28 8.788h60.167m-60.167 0-21.28 9.065m21.28-9.064h-21.28m101.101-8.79-4.853 2.171-14.801 6.618M2026.21 9.108l4.85 2.17 14.8 6.618m0 0h60.17m0 0 21.28 9.065m-21.28-9.064h21.28m0 419.499v-10.722m0 10.722v17.774m0-28.496v-26.88m0 55.376v30.266m0 0v32.203m0-288.108v-16.953m0 16.953v16.328m0-236.751v8.788m0 0v9.065m0 0 .05.022h-.05m0-.022v.022m0 0v9.398m0 0v9.727m0 0v8.214m0 0v1.859m0 0v10.437m0 0v10.823m0 0v7.123m0 0v4.105m0 0v11.659m0 0v12.114m0 0v5.726m0 0v6.871m0 0v13.108m0 0v13.652m0 0v3.925m0 0v10.305m0 0v14.845m0 0v15.501m0 0v1.6m0 0v14.603m0 34.708v18.616m0-18.616v-1.427m0 20.043v19.543m0 0v15.138m0 0v5.399m0 0v21.613m0 0v22.773m0 0v13.359m0 0v10.674m0 0v25.393m0 117.845v6.819m0 0v27.513m0 0v36.683m0 0v39.281m0 0v.997m0 0v41.17m0 0v45.381m0 0v41.14m0 0v7.839m0 0v53.021m0 0v57.586m0 0v41.169m0 0v21.598m0 0v68.674m0 0v75.47m0 0v39.48m0 0v43.84m0 0v.3H-442.308v-.3m0-918.014v18.616m0-18.616v-1.427m0 0v-16.328m0 0v-16.953m0 0v-14.603m0 0v-1.6m0 0v-15.501m0 0v-14.845m0 0v-10.305m0 0v-3.925m0 0v-13.652m0 0v-13.108m0 0v-6.871m0 0v-5.726m0 0v-12.114m0 0V88.669m0 0v-4.105m0 0v-7.123m0 0V66.618m0 0V56.181m0 0v-1.859m0 0v-8.214m0 0V36.38m0 0v-9.398m0 0h-.052l.052-.022m0 .022v-.022m0 0v-9.064m0 0v-8.79m0 1156.193v-43.84m0 0v-39.48m0 0v-75.46m0 0v-68.684m0 0v-21.598m0 0v-41.169m0 0v-57.586m0 0v-53.021m0 0v-7.839m0 0v-41.14m0 0v-45.381m0 0v-41.17m0 0v-.997m0 0v-39.281m0 0v-36.683m0 0v-27.513m0 0v-6.819m0 0v-32.203m0 0V455.17m0 0v-17.774m0 0v-10.722m0 0v-26.88m0 0v-25.393m0 0v-10.674m0 0v-13.359m0 0v-22.773m0 0v-21.613m0 0v-5.399m0 0v-15.138m0 0v-19.543" stroke="url(#a)" stroke-width="1.2" stroke-miterlimit="10" stroke-linecap="round" stroke-linejoin="round"/><defs><radialGradient id="a" cx="0" cy="0" r="1" gradientUnits="userSpaceOnUse" gradientTransform="matrix(0 422.299 -928.233 0 842.5 583.1)"><stop offset=".243" stop-color="#1B4332"/><stop offset=".761" stop-color="#fff" stop-opacity="0"/></radialGradient></defs></svg>