<svg width="40" height="51" fill="none" xmlns="http://www.w3.org/2000/svg"><path d="M23.254 5.112v.001l3.287 3.643 1.73 1.945v.001l2.033 2.324.884 1.028 1.543 1.838.959 1.182.523.67v.001c3.864 5.035 5.597 11.36 4.158 17.13-2.122 8.513-9.77 14.408-18.466 14.406l-.675-.011A19.004 19.004 0 0 1 1.503 34.874c-1.44-5.773.292-12.1 4.158-17.132l.82-1.04.001.001 1.007-1.23h.001l1.627-1.922h.001l1.435-1.654 1.606-1.822 1.794-2.012 2.67-2.956 3.313-3.626 3.318 3.63Z" stroke="#1B4332" stroke-width="2"/></svg>