<svg width="17" height="17" fill="none" xmlns="http://www.w3.org/2000/svg"><mask id="a" fill="#fff"><path d="M8.333 0C3.817 0 0 3.817 0 8.333c0 4.517 3.817 8.334 8.333 8.334 4.517 0 8.334-3.817 8.334-8.334C16.667 3.817 12.85 0 8.333 0Zm0 15c-3.616 0-6.666-3.05-6.666-6.667 0-3.616 3.05-6.666 6.666-6.666C11.95 1.667 15 4.717 15 8.333 15 11.95 11.95 15 8.333 15Z"/><path d="M9.167 4.167H7.5v5h5V7.5H9.167V4.167Z"/></mask><path d="M9.167 4.167h2v-2h-2v2Zm-1.667 0v-2h-2v2h2Zm0 5h-2v2h2v-2Zm5 0v2h2v-2h-2Zm0-1.667h2v-2h-2v2Zm-3.333 0h-2v2h2v-2ZM8.333 0v-2C2.713-2-2 2.712-2 8.333h4C2 4.921 4.921 2 8.333 2V0ZM0 8.333h-2c0 5.622 4.712 10.334 10.333 10.334v-4C4.921 14.667 2 11.745 2 8.333H0Zm8.333 8.334v2c5.622 0 10.334-4.712 10.334-10.334h-4c0 3.412-2.922 6.334-6.334 6.334v2Zm8.334-8.334h2C18.667 2.713 13.955-2 8.333-2v4c3.412 0 6.334 2.921 6.334 6.333h2ZM8.333 15v-2c-2.512 0-4.666-2.155-4.666-4.667h-4C-.333 13.055 3.612 17 8.333 17v-2ZM1.667 8.333h2c0-2.512 2.154-4.666 4.666-4.666v-4c-4.72 0-8.666 3.945-8.666 8.666h2Zm6.666-6.666v2C10.845 3.667 13 5.82 13 8.333h4c0-4.72-3.945-8.666-8.667-8.666v2ZM15 8.333h-2C13 10.845 10.845 13 8.333 13v4C13.055 17 17 13.055 17 8.333h-2ZM9.167 4.167v-2H7.5v4h1.667v-2Zm-1.667 0h-2v5h4v-5h-2Zm0 5v2h5v-4h-5v2Zm5 0h2V7.5h-4v1.667h2Zm0-1.667v-2H9.167v4H12.5v-2Zm-3.333 0h2V4.167h-4V7.5h2Z" fill="#93928C" mask="url(#a)"/></svg>