<svg width="1132" height="872" viewBox="0 0 1132 872" fill="none" xmlns="http://www.w3.org/2000/svg">
<path d="M542.395 0.651824C555.29 0.010973 599.184 -1.32301 609.568 3.70371C616.291 15.6259 613.012 165.917 612.274 191.897C620.911 193.394 743.09 54.8582 769.48 40.6325C789.718 44.7839 840.802 69.1063 856.408 82.3566C848.103 94.3998 820.575 120.57 809.27 131.847L694.41 246.138C674.833 265.52 618.273 315.81 616.08 341.057C614.29 361.665 609.468 431.077 612.835 449.57C621.638 447.857 646.319 417.26 654.816 408.871L837.927 226.072C865.674 198.243 900.526 160.494 930.457 136.748C947.48 145.027 985.879 185.157 997.033 201.824C980.304 219.696 963.198 236.593 945.725 253.71C856.171 341.443 769.387 434.799 677.931 520.389C707.284 518.858 736.128 519.819 765.406 519.654C781.877 519.562 795.407 517.557 809.21 508.201C835.661 490.269 858.559 462.066 881.344 439.996C901.675 420.303 919.741 402.08 939.384 381.904C974.762 345.569 1013.88 310.017 1048.83 273.807C1062.24 290.042 1085.57 340.865 1094.03 362.166C1087 371.225 1043.19 414.38 1032.96 424.059C1002.7 452.689 965.645 494.361 934.823 520.161C997.914 516.174 1067.93 523.226 1130.49 517.196C1131.83 552.395 1133.22 576.964 1130.18 612.582C1110.14 613.063 944.282 611.319 940.525 613.556C945.204 628.39 1072.89 742.387 1092.17 769.586L1093.08 770.882C1084.71 793.092 1074.81 814.694 1063.46 835.536C1060.16 841.554 1055.14 851.185 1048.48 853.146C1038.41 849.412 1012.57 821.323 1002.99 811.784L892.113 700.745C848.545 657.015 801.034 598.47 730.122 614.442C534.625 654.944 612.856 918.579 761.622 967.591C790.031 976.95 801.478 981.692 832.116 982.957C847.98 983.611 935.827 982.554 940.607 985.879C940.415 986.569 940.044 988.055 939.481 988.572C845.006 1075.27 729.668 1117.45 603.656 1130.42C594.156 1131.24 584.63 1131.75 575.096 1131.96C441.552 1133.69 285.998 1079.02 189.56 984.884C288.012 979.369 353.207 1000 437.641 924.94C488.514 877.875 512.334 830.591 518.102 761.95C527.356 651.834 415.932 577.851 318.781 629.494C292.425 643.505 257.301 683.315 234.403 706.257L138.033 802.474C120.23 820.29 100.446 841.335 82.0891 858.009C73.5625 844.074 40.6138 784.466 41.2771 771.557C41.9179 759.112 180.397 625.422 198.687 611.059C179.265 613.939 131.713 613.026 110.3 612.793C74.5589 612.403 37.4993 613.869 2.14556 613.298C0.329101 597.529 -1.84735 535.931 2.70425 522.962C10.2688 517.2 175.561 519.586 198.783 520.533C177.108 502.204 152.983 476.786 132.627 456.446L40.1149 363.853C45.034 340.421 69.8505 293.625 83.5082 272.582C93.0163 285.916 118.967 310.178 131.425 322.647L228.9 420.251C334.284 526.711 304.804 519.233 454.775 519.988L454.024 519.335C438.405 505.713 422.666 488.682 407.759 473.957L310.059 376.573L206.726 273.088C195.715 262.128 139.288 209.734 138.559 199.087C145.434 183.115 186.531 146.53 200.616 135.906C211.171 143.72 226.672 160.349 236.43 170.137L295.094 228.917C368.365 302.233 444.635 380.602 519.086 452.199C520.641 424.371 522.135 351.4 511.916 327.199C504.115 308.725 450.778 259.475 434.28 243.161L325.799 134.999C313.752 122.968 287.17 98.4854 279.394 85.3592C272.3 73.3832 353.303 42.9853 361.219 40.4174C374.98 48.0643 405.338 81.6141 417.934 94.2175L519.899 196.05C518.726 151.634 519.558 106.669 519.019 62.2064C518.789 43.2273 518.738 21.1127 520.643 2.30698C527.06 1.52123 535.766 1.14628 542.395 0.651824Z" fill="#F4F7E2" fill-opacity="0.2"></path>
</svg>
